<?xml version="1.0" encoding="UTF-8" standalone="no"?>
<svg
   xmlns:dc="http://purl.org/dc/elements/1.1/"
   xmlns:cc="http://creativecommons.org/ns#"
   xmlns:rdf="http://www.w3.org/1999/02/22-rdf-syntax-ns#"
   xmlns:svg="http://www.w3.org/2000/svg"
   xmlns="http://www.w3.org/2000/svg"
   xmlns:sodipodi="http://sodipodi.sourceforge.net/DTD/sodipodi-0.dtd"
   xmlns:inkscape="http://www.inkscape.org/namespaces/inkscape"
   inkscape:version="1.0 (4035a4fb49, 2020-05-01)"
   viewBox="0 0 1000 1000"
   id="svg846"
   version="1.1"
   sodipodi:docname="icon-template.svg"
   width="1000"
   height="1000">
  <sodipodi:namedview
     inkscape:snap-nodes="false"
     inkscape:document-rotation="0"
     inkscape:showpageshadow="false"
     showborder="true"
     inkscape:window-maximized="1"
     inkscape:window-y="-6"
     inkscape:window-x="1913"
     inkscape:window-height="1018"
     inkscape:window-width="1920"
     showguides="true"
     showgrid="false"
     inkscape:current-layer="layer1"
     inkscape:document-units="px"
     inkscape:cy="148.1893"
     inkscape:cx="782.84032"
     inkscape:zoom="0.35355339"
     inkscape:pageshadow="2"
     inkscape:pageopacity="0.0"
     borderopacity="1.0"
     bordercolor="#666666"
     pagecolor="#ffffff"
     id="base">
    <sodipodi:guide
       orientation="0,1"
       position="0,945"
       inkscape:label="ascender"
       id="guide_ascender" />
    <sodipodi:guide
       orientation="0,1"
       position="0,896"
       inkscape:label="caps"
       id="guide_caps" />
    <sodipodi:guide
       orientation="0,1"
       position="0,28"
       inkscape:label="descender"
       id="guide_descender" />
  </sodipodi:namedview>
  <defs
     id="defs4" />
  <metadata
     id="metadata7">
    <rdf:RDF>
      <cc:Work
         rdf:about="">
        <dc:format>image/svg+xml</dc:format>
        <dc:type
           rdf:resource="http://purl.org/dc/dcmitype/StillImage" />
        <dc:title></dc:title>
      </cc:Work>
    </rdf:RDF>
  </metadata>
  <g
     inkscape:label="Layer 1"
     inkscape:groupmode="layer"
     id="layer1">
    <path
       style="stroke-width:39.5993"
       d="m 460.40081,737.59515 h 79.19838 v -79.19839 h -79.19838 v 79.19839 M 500,104.00808 A 395.99192,395.99192 0 0 0 104.00808,500 395.99192,395.99192 0 0 0 500,895.99192 395.99192,395.99192 0 0 0 895.99192,500 395.99192,395.99192 0 0 0 500,104.00808 m 0,712.78546 C 325.36757,816.79354 183.20646,674.63243 183.20646,500 183.20646,325.36757 325.36757,183.20646 500,183.20646 c 174.63243,0 316.79354,142.16111 316.79354,316.79354 0,174.63243 -142.16111,316.79354 -316.79354,316.79354 m 0,-554.38869 A 158.39676,158.39676 0 0 0 341.60324,420.80161 h 79.19837 A 79.198382,79.198382 0 0 1 500,341.60324 a 79.198382,79.198382 0 0 1 79.19839,79.19837 c 0,79.19839 -118.79758,69.29859 -118.79758,197.99597 h 79.19838 c 0,-89.09819 118.79757,-98.99798 118.79757,-197.99597 A 158.39676,158.39676 0 0 0 500,262.40485 Z"
       id="path2381" />
  </g>
</svg>
