<svg width="100mm" height="100mm" version="1.1" viewBox="0 0 100 100" xmlns="http://www.w3.org/2000/svg" xmlns:xlink="http://www.w3.org/1999/xlink">
 <defs>
  <linearGradient id="linearGradient981" x1="231.34" x2="407.98" y1="90.645" y2="267.28" gradientTransform="matrix(.26458 0 0 .26458 .000447 -.011738)" gradientUnits="userSpaceOnUse">
   <stop stop-color="#212121" stop-opacity=".47059" offset="0"/>
   <stop stop-color="#424242" stop-opacity=".11471" offset="1"/>
  </linearGradient>
 </defs>
 <circle cx="50" cy="50" r="50" fill="#424242"/>
 <g transform="translate(0,-197)" fill="#42a5f5">
  <circle cx="50" cy="247" r="0"/>
  <circle cx="50" cy="247" r="0"/>
  <circle cx="50" cy="247" r="0"/>
  <circle cx="50" cy="247" r="0"/>
  <circle cx="50" cy="247" r="0"/>
 </g>
 <path d="m74.464 25.523-21.289 21.29a4.4904 4.4904 0 0 1 1.3152 3.175 4.4904 4.4904 0 0 1-4.4902 4.4902 4.4904 4.4904 0 0 1-3.175-1.3152l-21.29 21.289 25.525 25.525a50 50 0 0 0 48.929-48.929zm-24.464 19.992a4.4729 4.4729 0 0 0-4.4731 4.4731 4.4729 4.4729 0 0 0 4.4731 4.4726 4.4729 4.4729 0 0 0 4.4726-4.4726 4.4729 4.4729 0 0 0-4.4726-4.4731z" fill="url(#linearGradient981)" stroke-linecap="square" stroke-width=".33546" style="paint-order:fill markers stroke"/>
 <path d="m74.464 25.536-33.394 15.535-15.535 33.394 33.394-15.535zm-24.464 19.979c2.4872 0 4.4851 1.9979 4.4851 4.4851 0 2.4872-1.9979 4.4851-4.4851 4.4851-2.4872 0-4.4851-1.9979-4.4851-4.4851 0-2.4872 1.9979-4.4851 4.4851-4.4851z" fill="#fafafa" stroke-width="4.0774"/>
</svg>
