<svg width="100mm" height="100mm" version="1.1" viewBox="0 0 100 100" xmlns="http://www.w3.org/2000/svg">
 <defs>
  <linearGradient id="linearGradient992" x1="131.25" x2="341.67" y1="96.038" y2="306.46" gradientUnits="userSpaceOnUse">
   <stop style="stop-color:#212121;stop-opacity:.33106" offset="0"/>
   <stop style="stop-color:#212121;stop-opacity:.10922" offset="1"/>
  </linearGradient>
 </defs>
 <circle cx="50" cy="50" r="50" fill="#424242" style="fill:#37474f"/>
 <g transform="translate(0,-197)" fill="#42a5f5">
  <circle cx="50" cy="247" r="0"/>
  <circle cx="50" cy="247" r="0"/>
  <circle cx="50" cy="247" r="0"/>
  <circle cx="50" cy="247" r="0"/>
  <circle cx="50" cy="247" r="0"/>
 </g>
 <path transform="scale(.26458)" d="m215.26 92.479-24.303 85.637 31.613-7.9746-80.648 80.648 23.148 23.148h-45.586l-11.236 11.236 92.416 92.416a188.98 188.98 0 0 0 55.914-12.145 188.98 188.98 0 0 0 0.16797-0.06445 188.98 188.98 0 0 0 0.16797-0.06445 188.98 188.98 0 0 0 0.19922-0.07813 188.98 188.98 0 0 0 0.8789-0.3418 188.98 188.98 0 0 0 0.74024-0.29101 188.98 188.98 0 0 0 0.33398-0.13281 188.98 188.98 0 0 0 0.28125-0.11328 188.98 188.98 0 0 0 0.79102-0.32032 188.98 188.98 0 0 0 0.73633-0.30078 188.98 188.98 0 0 0 0.33203-0.13672 188.98 188.98 0 0 0 0.73633-0.30664 188.98 188.98 0 0 0 0.05273-0.02148 188.98 188.98 0 0 0 0.83398-0.35352 188.98 188.98 0 0 0 0.17774-0.07422 188.98 188.98 0 0 0 0.33008-0.14062 188.98 188.98 0 0 0 0.20508-0.08789 188.98 188.98 0 0 0 0.85742-0.3711 188.98 188.98 0 0 0 0.9707-0.42578 188.98 188.98 0 0 0 0.08789-0.03906 188.98 188.98 0 0 0 0.72656-0.32422 188.98 188.98 0 0 0 0.32813-0.14648 188.98 188.98 0 0 0 0.25781-0.11719 188.98 188.98 0 0 0 0.79492-0.36133 188.98 188.98 0 0 0 0.72461-0.33203 188.98 188.98 0 0 0 0.08789-0.04102 188.98 188.98 0 0 0 0.95899-0.44726 188.98 188.98 0 0 0 0.73632-0.34766 188.98 188.98 0 0 0 0.3086-0.14648 188.98 188.98 0 0 0 0.32422-0.15625 188.98 188.98 0 0 0 0.71679-0.34571 188.98 188.98 0 0 0 1.0391-0.50781 188.98 188.98 0 0 0 1.0352-0.51367 188.98 188.98 0 0 0 0.72071-0.36328 188.98 188.98 0 0 0 0.62304-0.31641 188.98 188.98 0 0 0 0.00977-0.0039 188.98 188.98 0 0 0 0.70898-0.36328 188.98 188.98 0 0 0 0.31836-0.16407 188.98 188.98 0 0 0 0.23047-0.12109 188.98 188.98 0 0 0 0.78906-0.41016 188.98 188.98 0 0 0 0.00586-0.0039 188.98 188.98 0 0 0 0.70313-0.3711 188.98 188.98 0 0 0 0.31836-0.16992 188.98 188.98 0 0 0 0.70117-0.37695 188.98 188.98 0 0 0 0.31641-0.16992 188.98 188.98 0 0 0 0.27343-0.15039 188.98 188.98 0 0 0 0.74219-0.4043 188.98 188.98 0 0 0 0.69727-0.38477 188.98 188.98 0 0 0 0.31445-0.17382 188.98 188.98 0 0 0 0.27148-0.15235 188.98 188.98 0 0 0 0.73633-0.41406 188.98 188.98 0 0 0 1.0039-0.57227 188.98 188.98 0 0 0 1.002-0.57812 188.98 188.98 0 0 0 0.91797-0.53711 188.98 188.98 0 0 0 0.08008-0.04688 188.98 188.98 0 0 0 0.68359-0.40625 188.98 188.98 0 0 0 0.3086-0.18359 188.98 188.98 0 0 0 0.68359-0.41016 188.98 188.98 0 0 0 0.30664-0.18554 188.98 188.98 0 0 0 0.125-0.07617 188.98 188.98 0 0 0 0.8457-0.51563 188.98 188.98 0 0 0 0.01758-0.01172 188.98 188.98 0 0 0 0.67578-0.41797 188.98 188.98 0 0 0 0.98047-0.61328 188.98 188.98 0 0 0 0.30469-0.1914 188.98 188.98 0 0 0 0.21875-0.14063 188.98 188.98 0 0 0 0.75586-0.48047 188.98 188.98 0 0 0 0.66992-0.42969 188.98 188.98 0 0 0 0.08984-0.05859 188.98 188.98 0 0 0 0.76172-0.49609 188.98 188.98 0 0 0 0.11719-0.07618 188.98 188.98 0 0 0 0.30078-0.19726 188.98 188.98 0 0 0 0.66406-0.43945 188.98 188.98 0 0 0 0.30079-0.19922 188.98 188.98 0 0 0 0.3164-0.21289 188.98 188.98 0 0 0 0.64258-0.43164 188.98 188.98 0 0 0 0.95703-0.65039 188.98 188.98 0 0 0 0.94727-0.65235 188.98 188.98 0 0 0 0.0039-0.00195 188.98 188.98 0 0 0 0.00977-0.00586 188.98 188.98 0 0 0 0.9375-0.65625 188.98 188.98 0 0 0 0.88281-0.62305 188.98 188.98 0 0 0 0.0625-0.04492 188.98 188.98 0 0 0 0.64648-0.46289 188.98 188.98 0 0 0 0.29297-0.21094 188.98 188.98 0 0 0 0.06836-0.04883 188.98 188.98 0 0 0 0.8418-0.61132 188.98 188.98 0 0 0 0.02539-0.01758 188.98 188.98 0 0 0 0.05469-0.03906 188.98 188.98 0 0 0 0.87695-0.64649 188.98 188.98 0 0 0 0.63867-0.47461 188.98 188.98 0 0 0 0.28711-0.21484 188.98 188.98 0 0 0 0.63672-0.47852 188.98 188.98 0 0 0 0.28711-0.2168 188.98 188.98 0 0 0 0.24414-0.1875 188.98 188.98 0 0 0 0.67383-0.51562 188.98 188.98 0 0 0 0.89453-0.68945 188.98 188.98 0 0 0 0.02149-0.01758 188.98 188.98 0 0 0 0.06445-0.05078 188.98 188.98 0 0 0 0.84375-0.66211 188.98 188.98 0 0 0 0.8418-0.66602 188.98 188.98 0 0 0 0.06445-0.05078 188.98 188.98 0 0 0 0.62109-0.49805 188.98 188.98 0 0 0 0.28125-0.22656 188.98 188.98 0 0 0 0.61719-0.50195 188.98 188.98 0 0 0 0.62305-0.50977 188.98 188.98 0 0 0 0.27148-0.22265 188.98 188.98 0 0 0 0.27734-0.23047 188.98 188.98 0 0 0 0.88672-0.74024 188.98 188.98 0 0 0 0.8711-0.73632 188.98 188.98 0 0 0 0.01367-0.00977 188.98 188.98 0 0 0 0.02734-0.02344 188.98 188.98 0 0 0 0.84961-0.72656 188.98 188.98 0 0 0 0.60352-0.51953 188.98 188.98 0 0 0 0.27148-0.23633 188.98 188.98 0 0 0 0.10352-0.0918 188.98 188.98 0 0 0 0.65625-0.57422 188.98 188.98 0 0 0 58.162-94.783l-107.66-107.66-0.24023 0.24023v14.146l-48.83-50.289zm48.83 67.189v2.1426h-8.4922l8.4922-2.1426z" style="fill:url(#linearGradient992);paint-order:fill markers stroke;stroke-linecap:square;stroke-width:.34964"/>
 <path d="m56.744 38.76h12.364l-12.364-12.364v12.364m-15.735-15.735h17.983l13.487 13.488v26.975a4.4958 4.4958 0 0 1-4.4958 4.4958h-26.975c-2.4952 0-4.4958-2.0231-4.4958-4.4958v-35.967a4.4958 4.4958 0 0 1 4.4958-4.4958m-8.9917 8.9917v40.462h35.967v4.4958h-35.967a4.4958 4.4958 0 0 1-4.4958-4.4958v-40.462z" style="fill:#fafafa;stroke-width:2.2479"/>
</svg>
