<svg width="1e3" height="1e3" version="1.1" viewBox="0 0 1e3 1e3" xmlns="http://www.w3.org/2000/svg">
 <path d="m500 820.4c-111.25 0-209.6-56.96-267-142.4 1.335-89 178-137.95 267-137.95s265.66 48.95 267 137.95c-57.405 85.44-155.75 142.4-267 142.4m0-631.9a133.5 133.5 0 0 1 133.5 133.5 133.5 133.5 0 0 1-133.5 133.5 133.5 133.5 0 0 1-133.5-133.5 133.5 133.5 0 0 1 133.5-133.5m0-133.5a445 445 0 0 0-445 445 445 445 0 0 0 445 445 445 445 0 0 0 445-445c0-246.08-200.25-445-445-445z" stroke-width="44.5"/>
</svg>
