<svg width="1e3" height="1e3" version="1.1" viewBox="0 0 1e3 1e3" xmlns="http://www.w3.org/2000/svg">
 <path d="m385.57 55a330.57 330.57 0 0 1 330.57 330.57c0 81.88-30.006 157.15-79.337 215.13l13.731 13.731h40.177l254.29 254.29-76.286 76.286-254.29-254.29v-40.177l-13.731-13.731c-57.977 49.331-133.25 79.337-215.13 79.337a330.57 330.57 0 0 1-330.57-330.57 330.57 330.57 0 0 1 330.57-330.57m0 101.71c-127.14 0-228.86 101.71-228.86 228.86s101.71 228.86 228.86 228.86 228.86-101.71 228.86-228.86-101.71-228.86-228.86-228.86z" stroke-width="50.857"/>
</svg>
