<svg width="1e3" height="1e3" version="1.1" viewBox="0 0 1e3 1e3" xmlns="http://www.w3.org/2000/svg">
 <path d="m55 500 182.05-182.05 182.05 182.05h-121.36c0 111.65 90.618 202.27 202.27 202.27 32.364 0 63.04-7.2656 90.549-21.017l88.337 88.178c-50.973 33.982-112.54 54.203-178.89 54.203-178.81 0-323.64-144.83-323.64-323.64zm266.11-269.43c50.973-33.982 112.54-54.203 178.89-54.203 178.81 0 323.64 144.83 323.64 323.64h121.36l-182.05 182.05-182.05-182.05h121.36c0-111.65-90.618-202.27-202.27-202.27-32.364 0-63.04 7.2656-90.549 21.018z" stroke-width="80.909"/>
</svg>
