<svg width="1e3" height="1e3" version="1.1" viewBox="0 0 1e3 1e3" xmlns="http://www.w3.org/2000/svg">
 <path d="m500.1 655.84a155.84 155.84 0 0 1-155.84-155.84 155.84 155.84 0 0 1 155.84-155.84 155.84 155.84 0 0 1 155.84 155.84 155.84 155.84 0 0 1-155.84 155.84m330.84-112.65c1.7811-14.249 3.1169-28.497 3.1169-43.191s-1.3358-29.388-3.1169-44.527l93.952-72.579c8.4601-6.6791 10.686-18.701 5.3432-28.497l-89.054-154.06c-5.3432-9.796-17.366-13.803-27.162-9.796l-110.87 44.527c-23.154-17.366-47.199-32.505-75.251-43.637l-16.475-118c-1.7811-10.687-11.132-18.701-22.264-18.701h-178.11c-11.132 0-20.482 8.0149-22.264 18.701l-16.475 118c-28.052 11.132-52.097 26.271-75.251 43.637l-110.87-44.527c-9.796-4.0074-21.818 0-27.162 9.796l-89.054 154.06c-5.7885 9.796-3.1169 21.818 5.3433 28.497l93.952 72.579c-1.7811 15.139-3.1169 29.833-3.1169 44.527s1.3358 28.943 3.1169 43.191l-93.952 73.915c-8.4601 6.6791-11.132 18.701-5.3433 28.497l89.054 154.06c5.3432 9.796 17.366 13.358 27.162 9.796l110.87-44.972c23.154 17.811 47.199 32.95 75.251 44.082l16.475 118c1.7811 10.686 11.132 18.701 22.264 18.701h178.11c11.132 0 20.482-8.0149 22.264-18.701l16.475-118c28.052-11.577 52.097-26.271 75.251-44.082l110.87 44.972c9.796 3.5622 21.818 0 27.162-9.796l89.054-154.06c5.3433-9.796 3.1169-21.818-5.3432-28.497z" stroke-width="44.527"/>
</svg>
