<svg width="1e3" height="1e3" version="1.1" viewBox="0 0 1e3 1e3" xml:space="preserve" xmlns="http://www.w3.org/2000/svg">
    <path d="m159.41 104c-66.439 99.877-104.72 244.19-104.72 396 0 151.81 38.279 296.12 104.72 396l71.279-45.761c-55.439-82.719-87.999-212.52-87.999-350.24s32.559-267.52 87.999-350.24l-71.279-45.759zm681.18 0-71.279 45.759c55.439 82.719 87.999 212.52 87.999 350.24s-32.559 267.52-87.999 350.24l71.279 45.761c66.439-99.877 104.72-244.19 104.72-396 0-151.81-38.279-296.12-104.72-396zm-212.71 63.899c-77.414 1.4775-142.41 60.915-149.19 139.42l-10.278 116.87h-121.05v76.131h114.2l-15.987 186.14c-2.6645 30.834-23.599 57.098-53.291 66.234-39.588 12.943-82.603-9.5163-95.165-49.485l-57.098 57.098c25.126 40.731 68.139 66.996 115.72 71.183 83.742 7.6087 157.59-54.435 165.2-138.18l16.749-192.99h114.2v-76.131h-107.35l9.5167-110.01c3.8063-42.253 40.73-73.086 82.602-69.28l-6e-3 6e-3c30.834 2.6645 56.718 23.22 66.234 52.531l57.1-57.1c-25.12-41.111-68.516-67.756-116.48-71.943-5.2572-0.42825-10.471-0.58789-15.632-0.48954h-2e-3z" stroke-width=".9946"/>
</svg>
