<svg width="1e3" height="1e3" version="1.1" viewBox="0 0 1e3 1e3" xmlns="http://www.w3.org/2000/svg">
 <path d="m839.17 478.8h-63.595v-169.59c0-47.06-38.157-84.793-84.793-84.793h-169.59v-63.595a105.99 105.99 0 0 0-105.99-105.99 105.99 105.99 0 0 0-105.99 105.99v63.595h-169.59a84.793 84.793 0 0 0-84.793 84.793v161.11h63.595c63.595 0 114.47 50.876 114.47 114.47 0 63.595-50.876 114.47-114.47 114.47h-63.595v161.11a84.793 84.793 0 0 0 84.793 84.793h161.11v-63.595c0-63.595 50.876-114.47 114.47-114.47 63.595 0 114.47 50.876 114.47 114.47v63.595h161.11a84.793 84.793 0 0 0 84.793-84.793v-169.59h63.595a105.99 105.99 0 0 0 105.99-105.99 105.99 105.99 0 0 0-105.99-105.99z" stroke-width="42.397"/>
</svg>
