<svg width="1e3" height="1e3" version="1.1" viewBox="0 0 1e3 1e3" xmlns="http://www.w3.org/2000/svg">
 <path d="m123.24 81.373a83.725 83.725 0 0 0-83.725 83.725v502.35c0 46.468 37.676 83.725 83.725 83.725h293.04v83.725h-83.725v83.725h334.9v-83.725h-83.725v-83.725h293.04a83.725 83.725 0 0 0 83.725-83.725v-502.35a83.725 83.725 0 0 0-83.725-83.725m-753.53 83.725h753.53v502.35h-753.53m502.35-460.49-146.52 146.52 146.52 146.52 58.608-58.608-87.912-87.912 87.912-87.912m-309.78 66.98-58.608 58.608 87.912 87.912-87.912 87.912 58.608 58.608 146.52-146.52" stroke-width="41.863"/>
</svg>
