<svg width="1e3" height="1e3" version="1.1" viewBox="0 0 1e3 1e3" xml:space="preserve" xmlns="http://www.w3.org/2000/svg">
    <path d="m159.41 104c-66.439 99.877-104.72 244.19-104.72 396s38.28 296.12 104.72 396l71.279-45.762c-55.439-82.719-88-212.52-88-350.24 0-137.72 32.56-267.52 88-350.24zm681.18 0-71.279 45.76c55.439 82.719 88 212.52 88 350.24 0 137.72-32.56 267.52-88 350.24l71.279 45.762c66.439-99.877 104.72-244.19 104.72-396s-38.28-296.12-104.72-396zm-223.92 92.998c-70.631 1.348-129.93 55.577-136.12 127.2l-9.377 106.63h-110.44v69.461h104.2l-14.588 169.83c-2.431 28.132-21.533 52.092-48.623 60.428-36.119 11.809-75.363-8.6818-86.824-45.148l-52.096 52.096c22.924 37.162 62.168 61.127 105.58 64.947 76.404 6.942 143.78-49.667 150.73-126.07l15.279-176.08h104.2v-69.461h-97.945l8.6836-100.37c3.4728-38.551 37.162-66.683 75.365-63.211l-6e-3 6e-3c28.132 2.431 51.747 21.185 60.43 47.928l52.098-52.096c-22.919-37.509-62.514-61.82-106.28-65.641-4.7966-0.39073-9.5529-0.53504-14.262-0.44531z"/>
</svg>
