<svg width="1e3" height="1e3" version="1.1" viewBox="0 0 1e3 1e3" xmlns="http://www.w3.org/2000/svg">
 <path d="m877.6 972-182.19-73.16c33.04-72.216 56.64-146.79 71.272-222.78l110.92 295.94m-573.01-73.16-182.19 73.16 110.92-295.94c14.632 75.992 38.232 150.57 71.272 222.78m195.41-870.84s236 94.4 236 472c0 146.32-35.4 271.4-78.824 369.58-15.576 33.984-49.088 55.224-86.376 55.224h-141.6c-37.288 0-70.8-21.24-86.376-55.224-42.952-98.176-78.824-223.26-78.824-369.58 0-377.6 236-472 236-472m0 472c51.92 0 94.4-42.48 94.4-94.4s-42.48-94.4-94.4-94.4-94.4 42.48-94.4 94.4 42.48 94.4 94.4 94.4z" stroke-width="47.2"/>
</svg>
