<svg version="1.1" viewBox="0 0 1e3 1e3" xmlns="http://www.w3.org/2000/svg">
 <path d="m546 591.99c-154.55 0-205.15 62.096-221.71 103.03 49.217 21.159 83.715 69.916 83.715 126.95a137.99 137.99 0 0 1-137.99 137.99 137.99 137.99 0 0 1-137.99-137.99c0-60.257 38.178-111.31 91.995-130.18v-383.62c-53.817-18.859-91.995-69.916-91.995-130.18a137.99 137.99 0 0 1 137.99-137.99 137.99 137.99 0 0 1 137.99 137.99c0 60.257-38.178 111.31-91.995 130.18v243.32c40.478-29.898 99.354-51.517 183.99-51.517 122.81 0 163.75-61.636 177.08-102.57-49.677-20.699-85.095-69.916-85.095-127.41a137.99 137.99 0 0 1 137.99-137.99 137.99 137.99 0 0 1 137.99 137.99c0 61.636-40.478 114.99-96.135 131.55-11.959 65.776-56.577 190.43-225.85 190.43m-275.98 183.99a45.997 45.997 0 0 0-45.997 45.997 45.997 45.997 0 0 0 45.997 45.997 45.997 45.997 0 0 0 45.997-45.997 45.997 45.997 0 0 0-45.997-45.997m0-643.96a45.997 45.997 0 0 0-45.997 45.997 45.997 45.997 0 0 0 45.997 45.997 45.997 45.997 0 0 0 45.997-45.997 45.997 45.997 0 0 0-45.997-45.997m459.97 91.995a45.997 45.997 0 0 0-45.997 45.997 45.997 45.997 0 0 0 45.997 45.997 45.997 45.997 0 0 0 45.997-45.997 45.997 45.997 0 0 0-45.997-45.997z" stroke-width="1.0336"/>
</svg>
