<svg width="1e3" height="1e3" version="1.1" viewBox="0 0 1e3 1e3" xmlns="http://www.w3.org/2000/svg">
 <path d="m914.67 292.64v226.22h-75.405v-226.22m0 301.62h75.405v75.405h-75.405m-339.32-565.54a75.405 75.405 0 0 0-75.405 75.405 75.405 75.405 0 0 0 0 10.934c-108.58 32.047-188.51 133.09-188.51 252.98v226.22l-75.405 75.405v37.703h678.65v-37.703l-75.405-75.405v-226.22c0-119.89-79.929-220.94-188.51-252.98a75.405 75.405 0 0 0 0-10.934 75.405 75.405 0 0 0-75.405-75.405m-75.405 716.35a75.405 75.405 0 0 0 75.405 75.405 75.405 75.405 0 0 0 75.405-75.405z" stroke-width="37.703"/>
</svg>
