<svg width="1e3" height="1e3" version="1.1" viewBox="0 0 1e3 1e3" xmlns="http://www.w3.org/2000/svg">
 <path d="m816.8 104h-633.6c-43.56 0-79.2 35.64-79.2 79.2v475.2c0 43.56 35.64 79.2 79.2 79.2h158.4v118.8c0 23.76 15.84 39.6 39.6 39.6h19.8c7.92 0 19.8-3.96 27.72-11.88l146.52-146.52h241.56c43.56 0 79.2-35.64 79.2-79.2v-475.2c0-43.56-35.64-79.2-79.2-79.2m-356.4 435.6h-158.4v-166.32l51.48-110.88h79.2l-55.44 118.8h83.16v158.4m237.6 0h-158.4v-166.32l51.48-110.88h79.2l-55.44 118.8h83.16z" stroke-width="39.6"/>
</svg>
