<svg width="1e3" height="1e3" version="1.1" viewBox="0 0 1e3 1e3" xmlns="http://www.w3.org/2000/svg">
 <path d="m502.83 98.346a75.428 75.428 0 0 0-75.428 75.428 75.428 75.428 0 0 0 0 10.937c-108.62 32.057-188.57 133.13-188.57 253.06v226.28l-75.428 75.428v37.714h678.85v-37.714l-75.428-75.428v-226.28c0-119.93-79.954-221-188.57-253.06a75.428 75.428 0 0 0 0-10.937 75.428 75.428 0 0 0-75.428-75.428m0 150.86a188.57 188.57 0 0 1 188.57 188.57v264h-377.14v-264a188.57 188.57 0 0 1 188.57-188.57m339.43 37.714v226.28h75.428v-226.28h-75.428m0 301.71v75.428h75.428v-75.428h-75.428m-414.85 226.28a75.428 75.428 0 0 0 75.428 75.428 75.428 75.428 0 0 0 75.428-75.428z" stroke-width="37.714"/>
</svg>
