<svg width="1e3" height="1e3" version="1.1" viewBox="0 0 1e3 1e3" xmlns="http://www.w3.org/2000/svg">
 <path d="m381.21 895.98a39.598 39.598 0 0 1-39.598-39.598v-118.79h-158.39a79.196 79.196 0 0 1-79.196-79.196v-475.17c0-43.954 35.638-79.196 79.196-79.196h633.57a79.196 79.196 0 0 1 79.196 79.196v475.17a79.196 79.196 0 0 1-79.196 79.196h-241.55l-146.51 146.91c-7.9196 7.5236-17.819 11.483-27.718 11.483h-19.799m39.598-237.59v121.96l121.96-121.96h274.02v-475.17h-633.57v475.17z" stroke-width="39.598"/>
</svg>
