<svg width="1e3" height="1e3" version="1.1" viewBox="0 0 1e3 1e3" xmlns="http://www.w3.org/2000/svg">
 <path d="m914.86 292.57v226.28h-75.428v-226.28m0 301.71h75.428v75.428h-75.428m-339.43-565.71a75.428 75.428 0 0 0-75.428 75.428 75.428 75.428 0 0 0 0 10.937c-108.62 32.057-188.57 133.13-188.57 253.06v226.28l-75.428 75.428v37.714h678.85v-37.714l-75.428-75.428v-226.28c0-119.93-79.954-221-188.57-253.06a75.428 75.428 0 0 0 0-10.937 75.428 75.428 0 0 0-75.428-75.428m-75.428 716.57a75.428 75.428 0 0 0 75.428 75.428 75.428 75.428 0 0 0 75.428-75.428z" stroke-width="37.714"/>
</svg>
