<svg width="1e3" height="1e3" version="1.1" viewBox="0 0 1e3 1e3" xmlns="http://www.w3.org/2000/svg">
 <path d="m419.09 742.73h-161.82v-80.909h161.82v80.909m0-161.82h-161.82v-80.909h161.82v80.909m0-525.91v40.455h-161.82c-44.905 0-80.909 36.005-80.909 80.909v647.27a80.909 80.909 0 0 0 80.909 80.909h161.82v40.455h80.909v-890h-80.909m404.55 283.18v485.45c0 44.905-36.005 80.909-80.909 80.909h-161.82v-80.909h161.82v-364.09h-161.82v-80.909h182.05l-182.05-182.05v-101.14l242.73 242.73m-161.82 242.73h-80.909v-80.909h80.909v80.909m0 161.82h-80.909v-80.909h80.909z" stroke-width="40.455"/>
</svg>
