<svg width="1e3" height="1e3" version="1.1" viewBox="0 0 1e3 1e3" xmlns="http://www.w3.org/2000/svg">
 <path d="m500 816.8c-174.64 0-316.8-142.16-316.8-316.8s142.16-316.8 316.8-316.8 316.8 142.16 316.8 316.8-142.16 316.8-316.8 316.8m0-712.8c-218.99 0-396 177.01-396 396s177.01 396 396 396 396-177.01 396-396-177.01-396-396-396m102.56 237.6-102.56 102.56-102.56-102.56-55.836 55.836 102.56 102.56-102.56 102.56 55.836 55.836 102.56-102.56 102.56 102.56 55.836-55.836-102.56-102.56 102.56-102.56z" stroke-width="39.6"/>
</svg>
