<svg width="1e3" height="1e3" version="1.1" viewBox="0 0 1e3 1e3" xmlns="http://www.w3.org/2000/svg">
 <path d="m518.86 669.71h150.86v-113.14l188.57 169.71-188.57 169.71v-113.14h-150.86v-113.14m-37.714-301.71h207.43l-207.43-207.43v207.43m-264-264h301.71l226.29 226.29v163.68c-23.76-8.2971-49.029-12.823-75.429-12.823a226.29 226.29 0 0 0-226.29 226.29c0 58.08 21.874 110.88 57.703 150.86h-283.99c-41.863 0-75.429-33.943-75.429-75.429v-603.43a75.429 75.429 0 0 1 75.429-75.429z" stroke-width="37.714"/>
</svg>
