<svg width="1e3" height="1e3" version="1.1" viewBox="0 0 1e3 1e3" xmlns="http://www.w3.org/2000/svg">
 <path d="m222.33 143c-44.03 0-79.333 35.303-79.333 79.333v555.33c0 44.03 35.303 79.333 79.333 79.333h555.33c44.03 0 79.333-35.303 79.333-79.333v-555.33c0-44.03-35.303-79.333-79.333-79.333h-555.33m0 79.333h555.33v555.33h-555.33v-555.33m511.7 79.333-95.2 396.67h-59.5l-79.333-297.5-79.333 297.5h-59.5l-95.2-396.67h67.433l61.087 297.5 77.747-297.5h55.533l78.143 297.5 60.69-297.5z" stroke-width="39.667"/>
</svg>
