<svg width="1e3" height="1e3" version="1.1" viewBox="0 0 1e3 1e3" xmlns="http://www.w3.org/2000/svg">
 <path d="m734.11 620.07-47.157 47.157-120.07-120.07-120.07 120.07-47.157-47.157 120.07-120.07-120.07-120.07 47.157-47.157 120.07 120.07 120.07-120.07 47.157 47.157-120.07 120.07 120.07 120.07m100.33-421.07a66.889 66.889 0 0 1 66.889 66.889v468.22a66.889 66.889 0 0 1-66.889 66.889h-501.67c-23.077 0-41.137-12.04-53.177-29.766l-180.93-271.23 180.93-271.57c12.04-17.726 30.1-29.431 53.177-29.431h501.67m0 66.889h-501.67l-157.86 234.11 157.86 234.11h501.67z" stroke-width="33.444"/>
</svg>
