<svg width="1e3" height="1e3" version="1.1" viewBox="0 0 1e3 1e3" xmlns="http://www.w3.org/2000/svg">
 <path d="m470.18 574.08a74.079 74.079 0 0 1 74.079 74.079 74.079 74.079 0 0 1-74.079 74.079 74.079 74.079 0 0 1-74.079-74.079 74.079 74.079 0 0 1 74.079-74.079m424.47-190.38-58.893 255.2-254.46-58.893 140.75-88.154c-52.226-84.45-145.56-140.01-251.87-140.01-146.31 0-267.79 105.93-291.87 245.57l-72.968-12.964c30.002-174.09 181.86-306.69 364.84-306.69 132.6 0 249.28 70.004 314.84 174.83z" stroke-width="37.039"/>
</svg>
