<svg width="1e3" height="1e3" version="1.1" viewBox="0 0 1e3 1e3" xmlns="http://www.w3.org/2000/svg">
 <path d="m500 707.43a75.428 75.428 0 0 0 75.428-75.428c0-41.863-33.943-75.428-75.428-75.428a75.428 75.428 0 0 0-75.428 75.428 75.428 75.428 0 0 0 75.428 75.428m226.28-339.43a75.428 75.428 0 0 1 75.428 75.428v377.14a75.428 75.428 0 0 1-75.428 75.428h-452.57a75.428 75.428 0 0 1-75.428-75.428v-377.14c0-41.863 33.943-75.428 75.428-75.428h37.714v-75.428a188.57 188.57 0 0 1 188.57-188.57 188.57 188.57 0 0 1 188.57 188.57v75.428h37.714m-226.28-188.57a113.14 113.14 0 0 0-113.14 113.14v75.428h226.28v-75.428a113.14 113.14 0 0 0-113.14-113.14z" stroke-width="37.714"/>
</svg>
