<svg width="1e3" height="1e3" version="1.1" viewBox="0 0 1e3 1e3" xmlns="http://www.w3.org/2000/svg">
 <path d="m848.14 667.68c-2.5152-7.1264-6.288-19.283-8.384-37.309-28.086 29.344-62.041 44.016-101.03 44.016-34.793 0-63.718-10.061-85.936-29.763-22.218-18.864-33.536-44.435-33.536-75.037 0-36.889 13.834-65.395 41.92-85.936 28.086-20.541 67.491-30.601 118.63-30.601h58.688v-26.829c0-20.541-6.288-36.889-18.864-49.046-12.576-12.157-31.44-18.026-55.753-18.026-21.798 0-39.824 5.0304-54.496 15.091-14.672 10.48-21.798 22.637-21.798 37.309h-61.203c0-18.026 6.288-35.213 18.864-51.981 11.738-16.768 29.763-29.763 51.142-39.405 21.379-8.8032 44.435-14.672 70.845-14.672 41.081 0 72.941 10.061 95.996 30.601 23.056 20.541 35.213 48.627 36.051 84.678v163.07c0 33.536 4.192 59.526 12.576 78.809v5.0304h-63.718m-100.61-46.95c18.864 0 36.889-4.6112 54.077-13.414 16.768-8.8032 29.344-20.541 36.889-34.793v-65.814h-47.369c-74.198 0-111.51 19.702-111.51 59.107 0 18.026 6.288 30.601 19.283 40.243 12.576 9.6416 28.505 14.672 48.627 14.672m-511.42-132.89h170.61l-85.097-227.21-85.516 227.21m49.465-323.2h72.102l197.44 503.04h-80.905l-40.662-107.73h-224.27l-40.243 107.73h-80.905l197.44-503.04m-194.51 586.88h461.12v83.84h-461.12z" stroke-width="41.92"/>
</svg>
