<svg width="1e3" height="1e3" version="1.1" viewBox="0 0 1e3 1e3" xmlns="http://www.w3.org/2000/svg">
 <path d="m500 556.58c41.488 0 75.434 33.568 75.434 75.434 0 41.866-33.568 75.434-75.434 75.434-41.866 0-75.434-33.568-75.434-75.434 0-41.866 33.945-75.434 75.434-75.434m301.73-452.6c-104.1 0-188.58 84.486-188.58 188.58v75.434h-339.45c-41.488 0-75.434 33.945-75.434 75.434v377.17c0 41.488 33.945 75.434 75.434 75.434h452.6c41.488 0 75.434-33.945 75.434-75.434v-377.17c0-41.488-33.945-75.434-75.434-75.434h-37.717v-75.434c0-62.61 50.54-113.15 113.15-113.15 62.61 0 113.15 50.54 113.15 113.15v75.434h75.434v-75.434c0-104.1-84.486-188.58-188.58-188.58m-75.434 339.45v377.17h-452.6v-377.17z" stroke-width="37.717"/>
</svg>
