<svg width="1e3" height="1e3" version="1.1" viewBox="0 0 1e3 1e3" xmlns="http://www.w3.org/2000/svg">
 <path d="m500 707.44c-41.866 0-75.433-33.945-75.433-75.433 0-41.866 33.568-75.433 75.433-75.433a75.433 75.433 0 0 1 75.433 75.433 75.433 75.433 0 0 1-75.433 75.433m226.3 113.15v-377.17h-452.6v377.17h452.6m0-452.6a75.433 75.433 0 0 1 75.433 75.433v377.17a75.433 75.433 0 0 1-75.433 75.433h-452.6c-41.866 0-75.433-33.945-75.433-75.433v-377.17c0-41.866 33.568-75.433 75.433-75.433h37.717v-75.433a188.58 188.58 0 0 1 188.58-188.58 188.58 188.58 0 0 1 188.58 188.58v75.433h37.717m-226.3-188.58a113.15 113.15 0 0 0-113.15 113.15v75.433h226.3v-75.433a113.15 113.15 0 0 0-113.15-113.15z" stroke-width="37.717"/>
</svg>
