<svg width="1e3" height="1e3" version="1.1" viewBox="0 0 1e3 1e3" xmlns="http://www.w3.org/2000/svg">
 <path d="m621.5 658.76c-13.365 2.025-26.73 3.24-40.5 3.24s-27.135-1.215-40.5-3.24v-142.16l-101.25 100.44c-20.25-15.795-40.5-36.045-56.295-56.295l100.44-101.25h-142.16c-2.025-13.365-3.24-26.73-3.24-40.5s1.215-27.135 3.24-40.5h142.16l-100.44-101.25c7.695-10.125 15.795-20.25 26.325-29.97 9.72-10.53 19.845-18.63 29.97-26.325l101.25 100.44v-142.16c13.365-2.025 26.73-3.24 40.5-3.24s27.135 1.215 40.5 3.24v142.16l101.25-100.44c20.25 15.795 40.5 36.045 56.295 56.295l-100.44 101.25h142.16c2.025 13.365 3.24 26.73 3.24 40.5s-1.215 27.135-3.24 40.5h-142.16l100.44 101.25c-7.695 10.125-15.795 20.25-26.325 29.97-9.72 10.53-19.845 18.63-29.97 26.325l-101.25-100.44v142.16m-445.5 84.24a81 81 0 0 1 81-81 81 81 0 0 1 81 81 81 81 0 0 1-81 81 81 81 0 0 1-81-81z" stroke-width="40.5"/>
</svg>
