<svg width="1e3" height="1e3" version="1.1" viewBox="0 0 1e3 1e3" xmlns="http://www.w3.org/2000/svg">
 <path d="m466.97 582.06a82.056 82.056 0 0 1 82.056 82.056 82.056 82.056 0 0 1-82.056 82.056 82.056 82.056 0 0 1-82.056-82.056 82.056 82.056 0 0 1 82.056-82.056m470.18-210.88-65.235 282.68-281.86-65.235 155.91-97.647c-57.85-93.544-161.24-155.09-278.99-155.09-162.07 0-296.63 117.34-323.3 272.02l-80.826-14.36c33.233-192.84 201.44-339.72 404.13-339.72 146.88 0 276.12 77.543 348.74 193.66z" stroke-width="41.028"/>
</svg>
