<svg width="1e3" height="1e3" version="1.1" viewBox="0 0 1e3 1e3" xmlns="http://www.w3.org/2000/svg">
 <path d="m835.69 739.29c-2.4252-6.8715-6.0631-18.594-8.0842-35.974-27.082 28.295-59.823 42.442-97.414 42.442-33.549 0-61.44-9.701-82.863-28.699-21.423-18.189-32.337-42.846-32.337-72.353 0-35.57 13.339-63.056 40.421-82.863 27.082-19.806 65.077-29.507 114.39-29.507h56.589v-25.869c0-19.806-6.0631-35.57-18.189-47.292-12.126-11.722-30.316-17.381-53.76-17.381-21.019 0-38.4 4.8505-52.547 14.551-14.147 10.105-21.019 21.827-21.019 35.974h-59.014c0-17.381 6.0631-33.953 18.189-50.122 11.318-16.168 28.699-28.699 49.313-37.996 20.615-8.4884 42.846-14.147 68.311-14.147 39.612 0 70.332 9.701 92.564 29.507s33.953 46.888 34.762 81.65v157.24c0 32.337 4.0421 57.398 12.126 75.991v4.8505h-61.44m-97.01-45.271c18.189 0 35.57-4.4463 52.143-12.935 16.168-8.4884 28.295-19.806 35.57-33.549v-63.461h-45.675c-71.545 0-107.52 18.998-107.52 56.993 0 17.381 6.0631 29.507 18.594 38.804 12.126 9.2968 27.486 14.147 46.888 14.147m-493.13-128.13h164.51l-82.054-219.08-82.458 219.08m47.697-311.64h69.524l190.38 485.05h-78.012l-39.208-103.88h-216.25l-38.804 103.88h-78.012z" stroke-width="40.421"/>
</svg>
