<svg width="1e3" height="1e3" version="1.1" viewBox="0 0 1e3 1e3" xmlns="http://www.w3.org/2000/svg">
 <path d="m801.72 104c-104.09 0-188.57 84.48-188.57 188.57v75.429h-339.43c-41.486 0-75.429 33.566-75.429 75.429v377.14c0 41.863 33.943 75.429 75.429 75.429h452.57c41.863 0 75.429-33.566 75.429-75.429v-377.14c0-41.486-33.566-75.429-75.429-75.429h-37.714v-75.429c0-62.606 50.537-113.14 113.14-113.14 62.606 0 113.14 50.537 113.14 113.14v75.429h75.429v-75.429c0-104.09-84.48-188.57-188.57-188.57m-301.71 452.57c41.486 0 75.429 33.566 75.429 75.429s-33.566 75.429-75.429 75.429c-41.486 0-75.429-33.566-75.429-75.429 0-41.486 33.943-75.429 75.429-75.429z" stroke-width="37.714"/>
</svg>
