<svg width="1e3" height="1e3" version="1.1" viewBox="0 0 1e3 1e3" xmlns="http://www.w3.org/2000/svg">
 <path d="m758.24 856.2c-17.81 53.429-66.787 89.049-124.67 89.049h-445.24c-75.692 0-133.57-57.882-133.57-133.57v-44.525h543.2c17.81 53.429 66.787 89.049 124.67 89.049h35.62m53.429-801.44c75.692 0 133.57 57.882 133.57 133.57v44.525h-89.049v-44.525c0-26.714-17.81-44.524-44.524-44.524s-44.524 17.81-44.524 44.524v578.82h-44.524c-26.715 0-44.524-17.81-44.524-44.524v-44.525h-489.77v-489.77c0-75.691 57.882-133.57 133.57-133.57h489.77m-489.77 178.1v89.049h311.67v-89.049h-311.67m0 178.1v89.049h267.15v-89.049z" stroke-width="44.525"/>
</svg>
