<svg version="1.1" viewBox="0 0 1000 1000" xmlns="http://www.w3.org/2000/svg">
 <path d="m539.6 381.2h217.8l-217.8-217.8v217.8m-277.2-277.2h316.8l237.6 237.6v475.2a79.2 79.2 0 0 1-79.2 79.2h-475.2c-43.956 0-79.2-35.64-79.2-79.2v-633.6c0-43.956 35.244-79.2 79.2-79.2m178.2 356.4c-99 0-178.2 79.2-178.2 178.2s79.2 178.2 178.2 178.2 178.2-79.2 178.2-178.2-79.2-178.2-178.2-178.2m0 59.4a118.8 118.8 0 0 1 118.8 118.8c0 22.176-5.94 42.768-16.632 59.4l-161.57-161.57c16.632-10.692 37.224-16.632 59.4-16.632m-118.8 118.8c0-22.176 5.94-42.768 16.632-59.4l161.57 161.57c-16.632 10.692-37.224 16.632-59.4 16.632a118.8 118.8 0 0 1-118.8-118.8z" style="stroke-width:39.6"/>
</svg>
