<svg width="1e3" height="1e3" version="1.1" viewBox="0 0 1e3 1e3" xmlns="http://www.w3.org/2000/svg">
 <path d="m94.341 152.29 49.452-48.293 752.21 752.21-48.293 49.452-108.18-107.4c-62.587 43.27-138.31 68.769-220.21 68.769a386.34 386.34 0 0 1-386.34-386.34c0-81.904 25.499-157.63 68.769-220.21l-107.4-108.18m193.17 560.2 249.96-115.9-134.06-134.06-115.9 249.96m463.61-463.61-248.8 115.9-202.06-202.44c62.201-42.884 137.92-67.996 219.06-67.996a386.34 386.34 0 0 1 386.34 386.34c0 81.132-25.112 156.85-67.996 219.06l-202.44-202.06z" stroke-width="38.634"/>
</svg>
