<svg width="1e3" height="1e3" version="1.1" viewBox="0 0 1e3 1e3" xmlns="http://www.w3.org/2000/svg">
 <path d="m500 683.69a127.47 127.47 0 0 1-127.47-127.47c0-47.588 25.919-89.228 63.734-110.9l412.57-238.79-234.97 407.05c-21.245 41.64-64.159 70.108-113.87 70.108m0-552.36c76.906 0 148.71 21.245 211.17 56.086l-89.228 51.412c-36.966-14.446-79.455-22.519-121.95-22.519a339.92 339.92 0 0 0-339.92 339.92c0 93.902 37.816 178.88 99.426 240.07h0.42489c16.571 16.571 16.571 43.339 0 59.91s-43.764 16.571-60.335 0.42489c-76.906-76.906-124.49-183.13-124.49-300.4a424.9 424.9 0 0 1 424.9-424.9m424.9 424.9c0 117.27-47.588 223.5-124.49 300.4-16.571 16.146-43.339 16.146-59.91-0.42489s-16.571-43.339 0-59.91c61.61-61.61 99.426-146.16 99.426-240.07 0-42.49-8.073-84.979-22.944-123.22l51.412-89.228c35.266 63.734 56.511 135.12 56.511 212.45z" stroke-width="42.49"/>
</svg>
