<svg width="1e3" height="1e3" version="1.1" viewBox="0 0 1e3 1e3" xmlns="http://www.w3.org/2000/svg">
 <path d="m168 234.4c0-36.852 29.88-66.4 66.4-66.4h99.6v66.4h-99.6v99.6h-66.4v-99.6m664 0v99.6h-66.4v-99.6h-99.6v-66.4h99.6a66.4 66.4 0 0 1 66.4 66.4m-66.4 531.2v-99.6h66.4v99.6c0 36.852-29.88 66.4-66.4 66.4h-99.6v-66.4h99.6m-597.6 0v-99.6h66.4v99.6h99.6v66.4h-99.6a66.4 66.4 0 0 1-66.4-66.4m265.6-597.6h132.8v66.4h-132.8v-66.4m0 597.6h132.8v66.4h-132.8v-66.4m332-332h66.4v132.8h-66.4v-132.8m-597.6 0h66.4v132.8h-66.4z" stroke-width="33.2"/>
</svg>
