<svg width="1e3" height="1e3" version="1.1" viewBox="0 0 1e3 1e3" xmlns="http://www.w3.org/2000/svg">
 <path d="m621.57 470.3-35.64 36.432c-28.512 28.512-46.332 52.668-46.332 112.07h-79.2v-19.8c0-43.956 17.82-83.556 46.332-112.07l49.104-49.896c14.652-14.256 23.364-34.056 23.364-55.836 0-43.956-35.64-79.2-79.2-79.2a79.2 79.2 0 0 0-79.2 79.2h-79.2a158.4 158.4 0 0 1 158.4-158.4 158.4 158.4 0 0 1 158.4 158.4c0 34.848-14.256 66.132-36.828 89.1m-81.972 306.9h-79.2v-79.2h79.2m-39.6-594a396 396 0 0 0-396 396 396 396 0 0 0 396 396 396 396 0 0 0 396-396c0-218.99-178.2-396-396-396z" stroke-width="39.6"/>
</svg>
