<svg width="1e3" height="1e3" version="1.1" viewBox="0 0 1e3 1e3" xmlns="http://www.w3.org/2000/svg">
 <path d="m222.33 143h79.333v79.333h-79.333v198.33a79.333 79.333 0 0 1-79.333 79.333 79.333 79.333 0 0 1 79.333 79.333v198.33h79.333v79.333h-79.333c-42.443-10.71-79.333-35.7-79.333-79.333v-158.67a79.333 79.333 0 0 0-79.333-79.333h-39.667v-79.333h39.667a79.333 79.333 0 0 0 79.333-79.333v-158.67a79.333 79.333 0 0 1 79.333-79.333m555.33 0a79.333 79.333 0 0 1 79.333 79.333v158.67a79.333 79.333 0 0 0 79.333 79.333h39.667v79.333h-39.667a79.333 79.333 0 0 0-79.333 79.333v158.67a79.333 79.333 0 0 1-79.333 79.333h-79.333v-79.333h79.333v-198.33a79.333 79.333 0 0 1 79.333-79.333 79.333 79.333 0 0 1-79.333-79.333v-198.33h-79.333v-79.333h79.333m-277.67 476a39.667 39.667 0 0 1 39.667 39.667 39.667 39.667 0 0 1-39.667 39.667 39.667 39.667 0 0 1-39.667-39.667 39.667 39.667 0 0 1 39.667-39.667m-158.67 0a39.667 39.667 0 0 1 39.667 39.667 39.667 39.667 0 0 1-39.667 39.667 39.667 39.667 0 0 1-39.667-39.667 39.667 39.667 0 0 1 39.667-39.667m317.33 0a39.667 39.667 0 0 1 39.667 39.667 39.667 39.667 0 0 1-39.667 39.667 39.667 39.667 0 0 1-39.667-39.667 39.667 39.667 0 0 1 39.667-39.667z" stroke-width="39.667"/>
</svg>
