<svg width="1e3" height="1e3" version="1.1" viewBox="0 0 1e3 1e3" xmlns="http://www.w3.org/2000/svg">
 <path d="m460.4 737.6h79.198v-79.198h-79.198v79.198m39.599-633.59a395.99 395.99 0 0 0-395.99 395.99 395.99 395.99 0 0 0 395.99 395.99 395.99 395.99 0 0 0 395.99-395.99 395.99 395.99 0 0 0-395.99-395.99m0 712.79c-174.63 0-316.79-142.16-316.79-316.79s142.16-316.79 316.79-316.79 316.79 142.16 316.79 316.79-142.16 316.79-316.79 316.79m0-554.39a158.4 158.4 0 0 0-158.4 158.4h79.198a79.198 79.198 0 0 1 79.198-79.198 79.198 79.198 0 0 1 79.198 79.198c0 79.198-118.8 69.299-118.8 198h79.198c0-89.098 118.8-98.998 118.8-198a158.4 158.4 0 0 0-158.4-158.4z" stroke-width="39.599"/>
</svg>
