<svg width="1e3" height="1e3" version="1.1" viewBox="0 0 1e3 1e3" xmlns="http://www.w3.org/2000/svg">
 <path d="m268.41 205.29h-126.25a42.221 42.221 0 0 0-42.082 42.082v505.26c0 23.162 18.92 42.082 42.082 42.082h126.31a42.221 42.221 0 0 0 42.082-42.082v-505.26a42.221 42.221 0 0 0-42.082-42.082zm589.43 0h-126.31a42.221 42.221 0 0 0-42.082 42.082v505.26c0 23.162 18.92 42.082 42.082 42.082h126.31a42.221 42.221 0 0 0 42.082-42.082v-505.26a42.221 42.221 0 0 0-42.082-42.082zm-294.71 0h-126.31a42.221 42.221 0 0 0-42.082 42.082v505.26c0 23.162 18.92 42.082 42.082 42.082h126.31a42.221 42.221 0 0 0 42.082-42.082v-505.26a42.221 42.221 0 0 0-42.082-42.082z" clip-rule="evenodd" fill-rule="evenodd" stroke-linejoin="round" stroke-miterlimit="1.414" stroke-width="69.559"/>
</svg>
