<svg width="1e3" height="1e3" version="1.1" viewBox="0 0 1e3 1e3" xmlns="http://www.w3.org/2000/svg">
 <path d="m742 500a66 66 0 0 1-66-66 66 66 0 0 1 66-66 66 66 0 0 1 66 66 66 66 0 0 1-66 66m-132-176a66 66 0 0 1-66-66 66 66 0 0 1 66-66 66 66 0 0 1 66 66 66 66 0 0 1-66 66m-220 0a66 66 0 0 1-66-66 66 66 0 0 1 66-66 66 66 0 0 1 66 66 66 66 0 0 1-66 66m-132 176a66 66 0 0 1-66-66 66 66 0 0 1 66-66 66 66 0 0 1 66 66 66 66 0 0 1-66 66m242-396a396 396 0 0 0-396 396 396 396 0 0 0 396 396 66 66 0 0 0 66-66c0-17.16-6.6-32.56-17.16-44-10.12-11.88-16.72-27.28-16.72-44a66 66 0 0 1 66-66h77.88a220 220 0 0 0 220-220c0-194.48-177.32-352-396-352z" stroke-width="44"/>
</svg>
