<svg width="1e3" height="1e3" version="1.1" viewBox="0 0 1e3 1e3" xmlns="http://www.w3.org/2000/svg">
 <path d="m153.13 307.3a77.082 77.082 0 0 0-77.082 77.082v308.33h77.082v-154.16h77.082v154.16h77.082v-308.33a77.082 77.082 0 0 0-77.082-77.082h-77.082m0 77.082h77.082v77.082h-77.082m462.49-19.27v-57.811a77.082 77.082 0 0 0-77.082-77.082h-154.16v385.41h154.16a77.082 77.082 0 0 0 77.082-77.082v-57.811a59.353 59.353 0 0 0-57.811-57.811 59.353 59.353 0 0 0 57.811-57.811m-77.082 173.43h-77.082v-77.082h77.082v77.082m0-154.16h-77.082v-77.082h77.082m231.25-77.082a77.082 77.082 0 0 0-77.082 77.082v231.25a77.082 77.082 0 0 0 77.082 77.082h77.082a77.082 77.082 0 0 0 77.082-77.082v-38.541h-77.082v38.541h-77.082v-231.25h77.082v38.541h77.082v-38.541a77.082 77.082 0 0 0-77.082-77.082z" stroke-width="38.541"/>
</svg>
