<svg width="1e3" height="1e3" version="1.1" viewBox="0 0 1e3 1e3" xmlns="http://www.w3.org/2000/svg">
 <path d="m759.02 757.4c21.384 0 39.6 18.216 39.6 39.6s-18.216 39.6-39.6 39.6h-475.2c-21.384 0-39.6-18.216-39.6-39.6s18.216-39.6 39.6-39.6h475.2m0-59.4h-475.2c-54.252 0-99 44.748-99 99s44.748 99 99 99h475.2c54.648 0 99-44.352 99-99s-44.352-99-99-99m99-237.6h-118.8v-158.4h-198l-118.8 158.4v198h475.2l-39.6-198m-374.62 0 77.616-99h99v99h-176.62m-70.488-300.56-198-55.836-109.3 389.27c-13.464 50.688 16.236 103.36 67.32 117.61l45.936 12.672 130.28-112.07-153.65-42.768 74.448-267.3 110.48 30.888c22.176 11.484 70.092 43.56 100.19 84.348l40.788-54.252h17.424c-49.896-62.964-122.36-100.58-125.93-102.56z" stroke-width="39.6"/>
</svg>
