<svg width="1e3" height="1e3" version="1.1" viewBox="0 0 1e3 1e3" xmlns="http://www.w3.org/2000/svg">
 <path d="m752.01 824.01h-504.02v-576.02h72.002v108h360.01v-108h72.002m-252.01-72.002a36.001 36.001 0 0 1 36.001 36.001 36.001 36.001 0 0 1-36.001 36.001 36.001 36.001 0 0 1-36.001-36.001 36.001 36.001 0 0 1 36.001-36.001m252.01 0h-150.49c-15.121-41.761-54.722-72.002-101.52-72.002s-86.403 30.241-101.52 72.002h-150.49a72.002 72.002 0 0 0-72.002 72.002v576.02a72.002 72.002 0 0 0 72.002 72.002h504.02a72.002 72.002 0 0 0 72.002-72.002v-576.02a72.002 72.002 0 0 0-72.002-72.002z" stroke-width="36.001"/>
</svg>
