<svg width="1e3" height="1e3" version="1.1" viewBox="0 0 1e3 1e3" xmlns="http://www.w3.org/2000/svg">
 <path d="m760.43 165.17-223.22 223.22 74.408 74.408 260.43-260.43v-37.204m-372.04 353.44a18.602 18.602 0 0 1-18.602-18.602 18.602 18.602 0 0 1 18.602-18.602 18.602 18.602 0 0 1 18.602 18.602 18.602 18.602 0 0 1-18.602 18.602m-223.22 279.03a74.408 74.408 0 0 1-74.408-74.408c0-41.296 33.484-74.406 74.408-74.406a74.408 74.408 0 0 1 74.408 74.406c0 41.296-33.484 74.408-74.408 74.408m0-446.45a74.408 74.408 0 0 1-74.408-74.408c0-41.296 33.484-74.408 74.408-74.408a74.408 74.408 0 0 1 74.408 74.408c0 41.296-33.484 74.408-74.408 74.408m135.42-13.393c8.5569-18.602 13.393-39.064 13.393-61.014a148.82 148.82 0 0 0-148.82-148.82 148.82 148.82 0 0 0-148.82 148.82 148.82 148.82 0 0 0 148.82 148.82c21.95 0 42.413-4.8365 61.014-13.393l87.801 87.801-87.801 87.801c-18.602-8.5569-39.064-13.393-61.014-13.393a148.82 148.82 0 0 0-148.82 148.81 148.82 148.82 0 0 0 148.82 148.82 148.82 148.82 0 0 0 148.82-148.82c0-21.95-4.8365-42.413-13.393-61.013l87.801-87.801 260.43 260.43h111.61v-37.204z" stroke-width="37.204"/>
</svg>
