<svg width="1e3" height="1e3" version="1.1" viewBox="0 0 1e3 1e3" xmlns="http://www.w3.org/2000/svg">
 <path d="m500 106.75c72.751 0 139.6 30.673 192.69 82.582l66.852-85.335 62.133 48.369-77.863 99.098c44.437 68.032 70.785 154.15 70.785 248.53 0 216.29-140.78 393.25-314.6 393.25-72.751 0-139.6-30.673-192.69-82.582l-66.852 85.335-62.133-48.369 77.863-99.098c-44.437-68.032-70.785-154.15-70.785-248.53 0-216.29 140.78-393.25 314.6-393.25m0 78.649c-130.16 0-235.95 140.78-235.95 314.6 0 68.032 16.123 130.95 43.65 182.47l336.62-431.39c-39.718-41.291-90.054-65.672-144.32-65.672m0 629.2c130.16 0 235.95-140.78 235.95-314.6 0-68.032-16.123-130.95-43.65-182.47l-336.62 431.39c39.718 41.291 90.054 65.672 144.32 65.672z" stroke-width="39.325"/>
</svg>
