<svg width="1e3" height="1e3" version="1.1" viewBox="0 0 1e3 1e3" xmlns="http://www.w3.org/2000/svg">
 <path d="m516.08 243.44c-42.1-3.8272-79.224 27.173-83.051 69.656l-9.5681 110.61h107.93v76.545h-114.82l-16.84 194.04c-7.6545 84.199-81.903 146.58-166.1 138.93-47.841-4.21-91.088-30.618-116.35-71.57l57.409-57.409c12.63 40.186 55.878 62.767 95.681 49.754 29.853-9.1854 50.902-35.593 53.581-66.594l16.074-187.15h-114.82v-76.545h121.71l10.334-117.5c7.2718-84.199 81.138-146.58 165.72-139.69 48.223 4.21 91.854 31.001 117.11 72.335l-57.409 57.409c-9.5681-29.47-35.593-50.137-66.594-52.816m366.65 319.96-53.964-53.964-108.31 108.31-108.31-108.31-54.73 53.964 109.08 109.08-109.08 107.55 54.73 53.964 108.31-108.31 108.31 108.31 53.964-53.964-108.31-107.55z" stroke-width="38.272"/>
</svg>
