<svg width="1e3" height="1e3" version="1.1" viewBox="0 0 1e3 1e3" xmlns="http://www.w3.org/2000/svg">
 <path d="m862.93 681.47c0 15.323-8.4685 28.631-21.373 35.487l-318.58 179.05c-6.4515 4.8394-14.517 7.2583-22.986 7.2583s-16.534-2.4199-22.986-7.2583l-318.58-179.05c-12.904-6.8554-21.373-20.163-21.373-35.487v-362.93c0-15.324 8.4685-28.631 21.373-35.487l318.58-179.05c6.4521-4.8389 14.517-7.2586 22.986-7.2586s16.534 2.4198 22.986 7.2586l318.58 179.05c12.904 6.8557 21.373 20.163 21.373 35.487v362.93m-362.93-498.03-240.34 135.09 240.34 135.09 240.34-135.09-240.34-135.09m-282.28 474.23 241.96 136.3v-270.59l-241.96-135.9v270.18m564.56 0v-270.18l-241.96 135.9v270.59z" clip-rule="evenodd" fill-rule="evenodd" stroke-linejoin="round" stroke-miterlimit="1.4142" stroke-width="40.326"/>
</svg>
