<svg width="1e3" height="1e3" version="1.1" viewBox="0 0 1e3 1e3" xmlns="http://www.w3.org/2000/svg">
 <path d="m104 737.38 66.062-65.689 52.999 52.253 39.563-39.189-52.999-52.626 52.999-52.999 92.188 92.562 39.563-39.563-92.188-92.562 52.626-52.626 52.999 52.626 39.563-39.563-52.999-52.626 52.999-52.999 92.188 92.562 39.563-39.563-92.188-92.562 52.626-52.626 52.626 52.626 39.936-39.563-52.999-52.626 52.999-52.999 91.815 92.562 39.936-39.563-92.188-92.562 65.689-66.062 158.62 158.62-633.38 633.38z" stroke-width="37.323"/>
</svg>
