<svg width="1e3" height="1e3" version="1.1" viewBox="0 0 1e3 1e3" xmlns="http://www.w3.org/2000/svg">
 <path d="m175.22 702.99v-324.78h-81.196v-81.196h162.39v405.98h-81.196m730.76-81.196c0 45.064-36.538 81.196-81.196 81.196h-162.39v-81.196h162.39v-81.196h-81.196v-81.196h81.196v-81.196h-162.39v-81.196h162.39a81.196 81.196 0 0 1 81.196 81.196v60.897a60.897 60.897 0 0 1-60.897 60.897 60.897 60.897 0 0 1 60.897 60.897v60.897m-324.78 0v81.196h-243.59v-162.39c0-45.064 36.538-81.196 81.196-81.196h81.196v-81.196h-162.39v-81.196h162.39a81.196 81.196 0 0 1 81.196 81.196v81.196c0 45.064-36.538 81.196-81.196 81.196h-81.196v81.196z" stroke-width="40.598"/>
</svg>
