<svg width="1e3" height="1e3" version="1.1" viewBox="0 0 1e3 1e3" xmlns="http://www.w3.org/2000/svg">
 <path d="m821.56 155.86c53.151 103.63 74.182 223.31 60.799 344.14-7.6476 120.83-49.71 240.52-121.22 344.14l-58.505-38.238c61.564-92.919 97.508-198.84 103.24-305.91 13.001-107.07-4.2062-212.99-49.71-305.91l65.387-38.238m-582.75 0 58.505 38.238c-61.564 92.919-97.508 198.84-103.24 305.91-13.001 107.07 4.5886 212.99 49.71 305.91l-64.623 38.238c-53.534-103.63-74.947-222.93-61.564-344.14 7.6476-120.83 49.71-240.52 121.22-344.14m264.23 293.67 88.713-123.51h96.743l-144.54 191.19 84.124 188.13h-86.418l-52.769-128.86-92.919 127.33h-96.36l149.13-195.78-81.448-182.01h86.801z" stroke-width="38.238"/>
</svg>
