<svg width="1e3" height="1e3" version="1.1" viewBox="0 0 1e3 1e3" xmlns="http://www.w3.org/2000/svg">
 <path d="m733.76 608.93v-125.67a35.907 35.907 0 0 0-35.907-35.907h-35.907c80.431-57.81 99.102-169.84 41.293-251.35-57.81-79.713-169.84-98.384-250.63-40.575-24.057 17.235-43.447 40.575-56.373 66.786-84.381-52.065-194.97-26.212-247.04 58.887-51.706 84.381-25.853 194.97 58.887 247.04 7.5404 4.3088 15.081 8.9767 22.98 11.849v302.33a35.907 35.907 0 0 0 35.907 35.907h430.88a35.907 35.907 0 0 0 35.907-35.907v-125.67l143.63 143.63v-394.97l-143.63 143.63m-179.53-377.02a71.813 71.813 0 0 1 71.813 71.813 71.813 71.813 0 0 1-71.813 71.813 71.813 71.813 0 0 1-71.813-71.813 71.813 71.813 0 0 1 71.813-71.813m-251.35 71.813a71.813 71.813 0 0 1 71.813 71.813 71.813 71.813 0 0 1-71.813 71.813 71.813 71.813 0 0 1-71.813-71.813 71.813 71.813 0 0 1 71.813-71.813z" stroke-width="35.907"/>
</svg>
