<svg width="1e3" height="1e3" version="1.1" viewBox="0 0 1e3 1e3" xmlns="http://www.w3.org/2000/svg">
 <path d="m318.87 572.45a72.454 72.454 0 0 1-72.454-72.454 72.454 72.454 0 0 1 72.454-72.454 72.454 72.454 0 0 1 72.454 72.454 72.454 72.454 0 0 1-72.454 72.454m204.68-144.91c-29.706-84.408-110.13-144.91-204.68-144.91a217.36 217.36 0 0 0-217.36 217.36 217.36 217.36 0 0 0 217.36 217.36c94.552 0 174.98-60.499 204.68-144.91h157.59v144.91h144.91v-144.91h72.454v-144.91z" stroke-width="36.227"/>
</svg>
