<svg width="1e3" height="1e3" version="1.1" viewBox="0 0 1e3 1e3" xmlns="http://www.w3.org/2000/svg">
 <path d="m443.79 556.21c16.345 15.547 16.345 41.061 0 56.608-15.547 15.547-41.061 15.547-56.608 0-77.737-77.737-77.737-204.11 0-281.85l141.12-141.12c77.737-77.737 204.11-77.737 281.85 0 77.737 77.737 77.737 204.11 0 281.85l-59.399 59.399c0.39865-32.689-4.7838-65.379-15.946-96.473l18.737-19.135c47.041-46.642 47.041-122.39 0-169.03-46.642-47.041-122.39-47.041-169.03 0l-140.72 140.72c-47.041 46.642-47.041 122.39 0 169.03m112.42-169.03c15.547-15.547 41.061-15.547 56.608 0 77.737 77.737 77.737 204.11 0 281.85l-141.12 141.12c-77.737 77.737-204.11 77.737-281.85 0-77.737-77.737-77.737-204.11 0-281.85l59.399-59.399c-0.39865 32.689 4.7838 65.379 15.946 96.872l-18.737 18.737c-47.041 46.642-47.041 122.39 0 169.03 46.642 47.041 122.39 47.041 169.03 0l140.72-140.72c47.041-46.642 47.041-122.39 0-169.03-16.345-15.547-16.345-41.061 0-56.608z" stroke-width="39.865"/>
</svg>
