<svg width="1e3" height="1e3" version="1.1" viewBox="0 0 1e3 1e3" xmlns="http://www.w3.org/2000/svg">
 <path d="m210.41 246.61h108.59l72.396-72.396h217.19l72.396 72.396h108.59a72.396 72.396 0 0 1 72.396 72.396v434.38a72.396 72.396 0 0 1-72.396 72.396h-579.17a72.396 72.396 0 0 1-72.396-72.396v-434.38a72.396 72.396 0 0 1 72.396-72.396m289.59 108.59a180.99 180.99 0 0 0-180.99 180.99 180.99 180.99 0 0 0 180.99 180.99 180.99 180.99 0 0 0 180.99-180.99 180.99 180.99 0 0 0-180.99-180.99m0 72.396a108.59 108.59 0 0 1 108.59 108.59 108.59 108.59 0 0 1-108.59 108.59 108.59 108.59 0 0 1-108.59-108.59 108.59 108.59 0 0 1 108.59-108.59z" stroke-width="36.198"/>
</svg>
