<svg width="1e3" height="1e3" version="1.1" viewBox="0 0 1e3 1e3" xmlns="http://www.w3.org/2000/svg">
 <path d="m540.24 459.76h201.18l-60.354-60.354 57.135-57.135 157.72 157.72-157.72 157.72-57.135-57.135 60.354-60.354h-201.18v201.18l60.354-60.354 57.135 57.135-157.72 157.72-157.72-157.72 57.135-57.135 60.354 60.354v-201.18h-201.18l60.354 60.354-57.135 57.135-157.72-157.72 157.72-157.72 57.135 57.135-60.354 60.354h201.18v-201.18l-60.354 60.354-57.135-57.135 157.72-157.72 157.72 157.72-57.135 57.135-60.354-60.354z" stroke-width="40.236"/>
</svg>
