<svg width="1e3" height="1e3" version="1.1" viewBox="0 0 1e3 1e3" xmlns="http://www.w3.org/2000/svg">
 <path d="m500 104c-218.99 0-396 178.2-396 396a396 396 0 0 0 396 396 396 396 0 0 0 396-396 396 396 0 0 0-396-396m138.6 237.6a59.4 59.4 0 0 1 59.4 59.4 59.4 59.4 0 0 1-59.4 59.4 59.4 59.4 0 0 1-59.4-59.4 59.4 59.4 0 0 1 59.4-59.4m-277.2 0a59.4 59.4 0 0 1 59.4 59.4 59.4 59.4 0 0 1-59.4 59.4 59.4 59.4 0 0 1-59.4-59.4 59.4 59.4 0 0 1 59.4-59.4m138.6 376.2c-92.268 0-170.68-57.816-202.36-138.6h404.71c-32.076 80.784-110.09 138.6-202.36 138.6z" stroke-width="39.6"/>
</svg>
