<svg width="1e3" height="1e3" version="1.1" viewBox="0 0 1e3 1e3" xmlns="http://www.w3.org/2000/svg">
 <path d="m588 500h-176v-88h176m0 264h-176v-88h176m264-264h-123.64c-19.8-34.32-47.08-63.8-80.08-86.24l71.72-71.72-62.04-62.04-95.48 95.48c-20.24-4.84-40.48-7.48-62.48-7.48s-42.24 2.64-62.04 7.48l-95.92-95.48-62.04 62.04 71.28 71.72c-32.56 22.44-59.84 51.92-79.64 86.24h-123.64v88h91.96c-2.2 14.52-3.96 29.04-3.96 44v44h-88v88h88v44c0 14.96 1.76 29.48 3.96 44h-91.96v88h123.64c45.76 78.76 130.68 132 228.36 132s182.6-53.24 228.36-132h123.64v-88h-91.96c2.2-14.52 3.96-29.04 3.96-44v-44h88v-88h-88v-44c0-14.96-1.76-29.48-3.96-44h91.96z" stroke-width="44"/>
</svg>
