<svg width="1e3" height="1e3" version="1.1" viewBox="0 0 1e3 1e3" xmlns="http://www.w3.org/2000/svg">
 <path d="m665.76 251.36a73.672 73.672 0 0 0 73.672-73.672 73.672 73.672 0 0 0-73.672-73.672 73.672 73.672 0 0 0-73.672 73.672 73.672 73.672 0 0 0 73.672 73.672m-132.61 512.02 36.836-162.08 77.355 73.672v221.01h73.672v-276.27l-77.355-73.672 22.101-110.51c51.202 58.569 124.87 92.09 202.6 92.09v-73.672c-64.831 1.1051-125.24-32.784-158.39-88.406l-36.836-58.937c-13.261-22.101-36.836-36.836-62.621-36.836-11.051 0-18.418 3.6836-29.469 3.6836l-191.55 81.039v173.13h73.672v-125.24l66.304-25.785-58.937 298.37-180.5-36.836-14.734 73.672 257.85 51.57m-327.84-383.09a36.836 36.836 0 0 1-36.836-36.836 36.836 36.836 0 0 1 36.836-36.836h110.51v73.672h-110.51m36.836-147.34a36.836 36.836 0 0 1-36.836-36.836 36.836 36.836 0 0 1 36.836-36.836h184.18v73.672h-184.18m-73.672 294.69a36.836 36.836 0 0 1-36.836-36.836 36.836 36.836 0 0 1 36.836-36.836h147.34v73.672z" stroke-width="36.836"/>
</svg>
