<svg width="1e3" height="1e3" version="1.1" viewBox="0 0 1e3 1e3" xmlns="http://www.w3.org/2000/svg">
 <path d="m895.97 417.28h-298.32l120.56-124.08c-120.12-118.8-314.6-123.2-434.72-4.4-120.12 119.24-120.12 311.52 0 431.2 120.12 118.8 314.6 118.8 434.72 0 59.84-59.4 89.76-128.48 89.76-215.6h88c0 87.12-38.72 200.2-116.16 276.76-154.44 153.12-405.24 153.12-559.68 0-154-152.68-155.32-400.84-0.88-553.52 154.44-152.68 402.16-152.68 556.6 0l120.12-123.64v313.28m-374-93.28v187l154 91.52-31.68 53.24-188.32-111.76v-220z" stroke-width="44"/>
</svg>
