<svg width="1e3" height="1e3" version="1.1" viewBox="0 0 1e3 1e3" xmlns="http://www.w3.org/2000/svg">
 <path d="m188.5 811.5a44.5 44.5 0 0 0 44.5 44.5h534a44.5 44.5 0 0 0 44.5-44.5c0-9.3449-3.115-18.245-8.01-25.365l-258.99-448.56v-193.57h-88.999v193.57l-258.99 448.56c-4.895 7.12-8.01 16.02-8.01 25.365m44.5 133.5a133.5 133.5 0 0 1-133.5-133.5c0-26.7 8.01-51.62 22.25-72.535l244.75-425.42v-80.545a44.5 44.5 0 0 1-44.5-44.5v-44.5a88.999 88.999 0 0 1 88.999-88.999h178a88.999 88.999 0 0 1 88.999 88.999v44.5a44.5 44.5 0 0 1-44.5 44.5v80.545l244.75 425.42c14.24 20.915 22.25 45.835 22.25 72.535a133.5 133.5 0 0 1-133.5 133.5h-534m311.5-267 59.63-59.63 85.884 148.63h-380.03l118.37-205.14 116.14 116.14m-22.25-178a22.25 22.25 0 0 1 22.25 22.25 22.25 22.25 0 0 1-22.25 22.25 22.25 22.25 0 0 1-22.25-22.25 22.25 22.25 0 0 1 22.25-22.25z" stroke-width="44.5"/>
</svg>
