<svg width="1e3" height="1e3" version="1.1" viewBox="0 0 1e3 1e3" xmlns="http://www.w3.org/2000/svg">
 <path d="m500 284a216 216 0 0 1 216 216c0 79.919-43.56 149.76-108 187.2v64.799a36 36 0 0 1-36 36h-144a36 36 0 0 1-36-36v-64.799c-64.439-37.44-108-107.28-108-187.2a216 216 0 0 1 216-216m71.999 539.99v36a36 36 0 0 1-36 36h-71.999a36 36 0 0 1-36-36v-36h144m216-360h108v71.999h-108v-71.999m-683.99 0h108v71.999h-108v-71.999m432-360v108h-71.999v-108h71.999m-290.88 89.999 76.679 77.039-51.12 50.76-76.679-76.319 51.12-51.48m433.08 76.679 76.319-76.679 51.48 51.48-76.679 76.319z" stroke-width="36"/>
</svg>
