<svg width="1e3" height="1e3" version="1.1" viewBox="0 0 1e3 1e3" xmlns="http://www.w3.org/2000/svg">
 <path d="m608.95 453.58c97.106 0 174.79 77.685 174.79 174.79 0 34.181-9.7106 66.42-26.801 93.222l119.63 120.41-53.991 53.991-121.19-119.25c-26.801 16.702-58.652 26.413-92.445 26.413-97.106 0-174.79-77.685-174.79-174.79s77.685-174.79 174.79-174.79m0 77.685a97.106 97.106 0 0 0-97.106 97.106 97.106 97.106 0 0 0 97.106 97.106 97.106 97.106 0 0 0 97.106-97.106 97.106 97.106 0 0 0-97.106-97.106m-330.16 38.842v77.685h77.685c5.4379 60.206 31.074 114.2 70.305 155.37h-225.67c-43.115 0-77.685-34.958-77.685-77.685v-543.79c0-43.115 34.57-77.685 77.685-77.685h543.79a77.685 77.685 0 0 1 77.685 77.685v311.9c-44.669-70.693-123.52-117.69-213.63-117.69-49.33 0-95.552 14.372-134.39 38.842h-195.77v77.685h116.53c-13.983 23.305-25.636 49.718-32.239 77.685h-84.288m388.42-233.05v-77.685h-388.42v77.685z" stroke-width="38.842"/>
</svg>
