<svg width="1e3" height="1e3" version="1.1" viewBox="0 0 1e3 1e3" xmlns="http://www.w3.org/2000/svg">
 <path d="m669.71 601.83 226.28 226.28-67.885 67.885-226.28-226.28v-35.753l-12.219-12.672c-51.593 44.352-118.57 71.053-191.44 71.053a294.17 294.17 0 0 1-294.17-294.17 294.17 294.17 0 0 1 294.17-294.17 294.17 294.17 0 0 1 294.17 294.17c0 72.864-26.702 139.84-71.053 191.44l12.672 12.219h35.753m-271.54 0c113.14 0 203.66-90.514 203.66-203.66s-90.514-203.66-203.66-203.66-203.66 90.514-203.66 203.66 90.514 203.66 203.66 203.66m113.14-181.03h-90.514v90.514h-45.257v-90.514h-90.514v-45.257h90.514v-90.514h45.257v90.514h90.514z" stroke-width="45.257"/>
</svg>
