<svg version="1.1" viewBox="0 0 1000 1000" xmlns="http://www.w3.org/2000/svg">
 <path d="m511.29 104h-296.21a74.053 74.053 0 0 0-74.053 74.053v592.43a74.053 74.053 0 0 0 74.053 74.053h259.19c-15.181-9.2567-29.621-20.735-42.21-33.324-97.75-89.975-104.04-242.15-13.33-339.9 81.088-89.604 215.87-103.3 314.73-34.065v-111.08l-222.16-222.16m-37.027 259.19v-203.65l203.65 203.65h-203.65m270.66 366.56c49.245-78.126 25.548-181.43-51.837-230.31-78.126-49.245-181.8-25.178-230.31 51.837-49.616 78.126-25.548 181.06 51.837 230.31 54.059 34.435 122.93 34.435 177.36 0.74063l115.52 113.67 51.467-51.467-114.04-114.78m-141.07 3.7027a92.567 92.567 0 0 1-92.567-92.567 92.567 92.567 0 0 1 92.567-92.567 92.567 92.567 0 0 1 92.567 92.567 92.567 92.567 0 0 1-92.567 92.567z" style="stroke-width:37.027"/>
</svg>
