<svg width="1e3" height="1e3" version="1.1" viewBox="0 0 1e3 1e3" xmlns="http://www.w3.org/2000/svg">
 <path d="m563.64 754.57h-198v-169.71h198a84.857 84.857 0 0 1 84.857 84.857 84.857 84.857 0 0 1-84.857 84.857m-198-509.14h169.71a84.857 84.857 0 0 1 84.857 84.857 84.857 84.857 0 0 1-84.857 84.857h-169.71m316.8 72.977c54.874-38.469 93.343-101.26 93.343-157.83 0-127.85-99-226.29-226.29-226.29h-353.57v792h398.26c118.8 0 209.88-96.171 209.88-214.41 0-85.989-48.651-159.53-121.63-193.47z" stroke-width="56.571"/>
</svg>
