<svg width="1e3" height="1e3" version="1.1" viewBox="0 0 1e3 1e3" xmlns="http://www.w3.org/2000/svg">
 <path d="m669.71 601.83h-35.753l-12.672-12.219c44.352-51.593 71.053-118.57 71.053-191.44a294.17 294.17 0 0 0-294.17-294.17 294.17 294.17 0 0 0-294.17 294.17 294.17 294.17 0 0 0 294.17 294.17c72.864 0 139.84-26.702 191.44-71.053l12.219 12.672v35.753l226.28 226.28 67.885-67.885-226.28-226.28m-271.54 0c-113.14 0-203.66-90.514-203.66-203.66 0-113.14 90.514-203.66 203.66-203.66 113.14 0 203.66 90.514 203.66 203.66 0 113.14-90.514 203.66-203.66 203.66m-113.14-226.28h226.28v45.257h-226.28z" stroke-width="45.257"/>
</svg>
