<svg width="1e3" height="1e3" version="1.1" viewBox="0 0 1e3 1e3" xmlns="http://www.w3.org/2000/svg">
 <path d="m190.93 190.93c-79.125 79.125-128.09 188.41-128.09 309.07s48.962 229.94 128.09 309.07l61.639-61.639c-63.388-62.951-102.29-150.38-102.29-247.43 0-96.612 38.907-184.48 102.29-247.43l-61.639-61.639m618.14 0-61.639 61.639c63.388 62.951 102.29 150.82 102.29 247.43 0 97.049-38.907 184.48-102.29 247.43l61.639 61.639c79.125-79.125 128.09-188.41 128.09-309.07s-48.962-229.94-128.09-309.07m-494.42 123.72c-47.65 47.65-76.94 113.22-76.94 185.35s29.29 137.7 76.94 185.35l61.639-61.639c-31.475-31.475-51.147-75.191-51.147-123.72s19.672-92.24 51.147-123.72l-61.639-61.639m370.71 0-61.639 61.639c31.475 31.475 51.147 75.191 51.147 123.72s-19.672 92.24-51.147 123.72l61.639 61.639c47.65-47.65 76.94-113.22 76.94-185.35s-29.29-137.7-76.94-185.35m-185.35 97.923a87.431 87.431 0 0 0-87.431 87.431 87.431 87.431 0 0 0 87.431 87.431 87.431 87.431 0 0 0 87.431-87.431 87.431 87.431 0 0 0-87.431-87.431z" stroke-width="43.716"/>
</svg>
