<svg width="1e3" height="1e3" version="1.1" viewBox="0 0 1e3 1e3" xmlns="http://www.w3.org/2000/svg">
 <path d="m183.2 816.8h554.4v79.2h-554.4c-43.56 0-79.2-35.244-79.2-79.2v-554.4h79.2v554.4m642.31-712.8h-492.62c-38.808 0-70.488 31.68-70.488 70.488v492.62c0 38.808 31.68 70.488 70.488 70.488h492.62c38.808 0 70.488-31.68 70.488-70.488v-492.62c0-38.808-31.68-70.488-70.488-70.488m-48.312 459.36-55.44 55.44-142.56-142.56-142.56 142.56-55.44-55.44 142.56-142.56-142.56-142.56 55.44-55.44 142.56 142.56 142.56-142.56 55.44 55.44-142.56 142.56z" stroke-width="39.6"/>
</svg>
