<svg width="1e3" height="1e3" version="1.1" viewBox="0 0 1e3 1e3" xmlns="http://www.w3.org/2000/svg">
 <path d="m816.8 104h-475.2c-43.56 0-79.2 35.64-79.2 79.2v475.2c0 43.956 35.64 79.2 79.2 79.2h475.2c43.956 0 79.2-35.244 79.2-79.2v-475.2c0-43.56-35.244-79.2-79.2-79.2m0 554.4h-475.2v-475.2h475.2v475.2m-633.6-396v554.4h554.4v79.2h-554.4c-43.56 0-79.2-35.244-79.2-79.2v-554.4h79.2m228.49 270.86 112.07-112.46-112.07-112.86 55.44-55.44 112.07 112.86 112.46-112.07 55.44 55.44-112.46 112.07 112.07 112.46-55.44 55.44-112.07-112.46-112.07 112.46z" stroke-width="39.6"/>
</svg>
