<svg width="1e3" height="1e3" version="1.1" viewBox="0 0 1e3 1e3" xmlns="http://www.w3.org/2000/svg">
 <path d="m500 389.52a110.48 110.48 0 0 0-110.48 110.48 110.48 110.48 0 0 0 110.48 110.48 110.48 110.48 0 0 0 110.48-110.48 110.48 110.48 0 0 0-110.48-110.48m0 294.61a184.13 184.13 0 0 1-184.13-184.13 184.13 184.13 0 0 1 184.13-184.13 184.13 184.13 0 0 1 184.13 184.13 184.13 184.13 0 0 1-184.13 184.13m0-460.33c-184.13 0-341.38 114.53-405.09 276.2 63.71 161.67 220.96 276.2 405.09 276.2s341.38-114.53 405.09-276.2c-63.71-161.67-220.96-276.2-405.09-276.2z" stroke-width="36.827"/>
</svg>
