<?xml version="1.0" encoding="UTF-8"?>
<svg width="1e3" height="1e3" version="1.1" viewBox="0 0 1e3 1e3" xmlns="http://www.w3.org/2000/svg">
 <g transform="matrix(49.444 0 0 49.444 1396.7 -1125.7)">
  <path d="m-11.136 23.88h-14c-1.11 0-2 0.9-2 2v14c0 1.1 0.89 2 2 2h14c1.1 0 2-0.9 2-2v-14c0-1.1-0.89-2-2-2zm0 16h-14v-12h14zm-5.5-6c0 0.83-0.67 1.5-1.5 1.5s-1.5-0.67-1.5-1.5 0.67-1.5 1.5-1.5 1.5 0.67 1.5 1.5zm-1.5-4c-2.73 0-5.06 1.66-6 4 0.94 2.34 3.27 4 6 4s5.06-1.66 6-4c-0.94-2.34-3.27-4-6-4zm0 6.5c-1.38 0-2.5-1.12-2.5-2.5s1.12-2.5 2.5-2.5 2.5 1.12 2.5 2.5-1.12 2.5-2.5 2.5z"/>
 </g>
</svg>
