<svg width="1e3" height="1e3" version="1.1" viewBox="0 0 1e3 1e3" xmlns="http://www.w3.org/2000/svg">
 <path d="m493.74 390.91 116.74 116.37v-5.8923a110.48 110.48 0 0 0-110.48-110.48h-6.2606m-158.35 29.461 57.081 57.081c-1.8413 7.7336-2.9461 15.467-2.9461 23.937a110.48 110.48 0 0 0 110.48 110.48c8.1018 0 16.204-1.1048 23.937-2.9461l57.081 57.081c-24.674 12.153-51.926 19.518-81.019 19.518a184.13 184.13 0 0 1-184.13-184.13c0-29.093 7.3654-56.345 19.518-81.019m-203.65-203.65 100.54 100.54c-60.764 47.875-108.64 110.48-137.36 184.13 63.71 161.67 220.96 276.2 405.09 276.2 57.081 0 111.58-11.048 161.3-30.934l15.836 15.467 107.53 107.53 46.77-46.77-652.94-652.94m321.5 147.31a184.13 184.13 0 0 1 184.13 184.13c0 23.569-4.7875 46.402-13.258 67.025l107.9 107.9c55.24-46.033 99.432-106.43 126.32-174.93-63.71-161.67-220.96-276.2-405.09-276.2-51.557 0-100.91 9.2067-147.31 25.779l79.914 79.177c20.991-8.1019 43.456-12.889 67.393-12.889z" stroke-width="36.827"/>
</svg>
