<svg width="1e3" height="1e3" version="1.1" viewBox="0 0 1e3 1e3" xmlns="http://www.w3.org/2000/svg">
 <path d="m381.2 539.6a118.8 118.8 0 0 0 118.8 118.8 118.8 118.8 0 0 0 118.8-118.8 118.8 118.8 0 0 0-118.8-118.8 118.8 118.8 0 0 0-118.8 118.8m435.6 260.96v-458.96l-237.6-237.6h-316.8a79.2 79.2 0 0 0-79.2 79.2v633.6a79.2 79.2 0 0 0 79.2 79.2h475.2c17.82 0 33.66-5.94 47.124-15.84l-175.43-175.43c-31.68 20.592-69.696 32.868-109.3 32.868a198 198 0 0 1-198-198 198 198 0 0 1 198-198 198 198 0 0 1 198 198c0 39.6-12.276 77.616-32.868 108.9z" stroke-width="39.6"/>
</svg>
