<svg width="1e3" height="1e3" version="1.1" viewBox="0 0 1e3 1e3" xmlns="http://www.w3.org/2000/svg">
 <path d="m500 104a405.83 405.83 0 0 0-405.83 405.83c0 179.38 116.47 331.56 277.59 385.54 20.292 3.2466 26.785-9.3341 26.785-20.292v-68.586c-112.42 24.35-136.36-54.381-136.36-54.381-18.668-47.076-45.047-59.657-45.047-59.657-36.931-25.162 2.8408-24.35 2.8408-24.35 40.583 2.8408 62.092 41.801 62.092 41.801 35.307 61.686 94.965 43.424 118.1 33.684 3.6525-26.379 14.204-44.236 25.567-54.381-90.095-10.146-184.65-45.047-184.65-199.67 0-45.047 15.422-81.166 41.801-109.98-4.0583-10.146-18.262-52.352 4.0583-107.14 0 0 34.09-10.957 111.6 41.395 32.061-8.9283 66.962-13.392 101.46-13.392s69.397 4.4641 101.46 13.392c77.514-52.352 111.6-41.395 111.6-41.395 22.321 54.787 8.1166 96.994 4.0583 107.14 26.379 28.814 41.801 64.933 41.801 109.98 0 155.03-94.965 189.12-185.46 199.26 14.61 12.581 28.002 37.336 28.002 75.079v111.2c0 10.957 6.4933 23.944 27.191 20.292 161.12-54.381 277.18-206.16 277.18-385.54a405.83 405.83 0 0 0-405.83-405.83z" stroke-width="40.583"/>
</svg>
