<svg width="1e3" height="1e3" version="1.1" viewBox="0 0 1e3 1e3" xmlns="http://www.w3.org/2000/svg">
 <path d="m739.4 158-171 153.9v376.2l171-153.9v-376.2m-427.5 102.6c-66.69 0-138.51 13.68-188.1 51.3v501.37c0 8.55 8.55 17.1 17.1 17.1 3.42 0 5.13-2.394 8.55-2.394 46.17-22.23 112.86-37.278 162.45-37.278 66.69 0 138.51 13.68 188.1 51.3 46.17-29.07 129.96-51.3 188.1-51.3 56.43 0 114.57 10.602 162.45 36.252 3.42 1.71 5.13 1.026 8.55 1.026 8.55 0 17.1-8.55 17.1-17.1v-498.98c-20.52-15.39-42.75-25.65-68.4-34.2v461.7c-37.62-11.97-78.66-17.1-119.7-17.1-58.14 0-141.93 22.23-188.1 51.3v-461.7c-49.59-37.62-121.41-51.3-188.1-51.3z" stroke-width="34.2"/>
</svg>
