<svg width="1e3" height="1e3" version="1.1" viewBox="0 0 1e3 1e3" xmlns="http://www.w3.org/2000/svg">
 <path d="m189.78 538.78c-43.043 0-77.556 34.512-77.556 77.556v155.11c0 43.043 34.512 77.556 77.556 77.556h155.11c43.043 0 77.556-34.512 77.556-77.556v-155.11c0-43.043-34.512-77.556-77.556-77.556m7.7556 58.167 41.104 40.717-154.72 153.17-98.108-98.883 41.492-40.717 57.003 57.779m-49.636-558.01c-43.043 0-77.556 34.512-77.556 77.556v155.11c0 43.043 34.512 77.556 77.556 77.556h155.11c43.043 0 77.556-34.512 77.556-77.556v-155.11c0-43.043-34.512-77.556-77.556-77.556m-155.11 77.556h155.11v155.11h-155.11m310.22-155.11h387.78v77.556h-387.78m0 465.33v-77.556h387.78v77.556m-387.78-310.22h387.78v77.556h-387.78z" stroke-width="38.778"/>
</svg>
