<svg width="1e3" height="1e3" version="1.1" viewBox="0 0 1e3 1e3" xmlns="http://www.w3.org/2000/svg">
 <path d="m903.77 249.09c-29.723 13.511-61.762 22.389-94.96 26.635 33.969-20.459 60.218-52.884 72.571-91.871-32.039 19.301-67.553 32.811-105 40.532-30.495-33.197-73.343-52.498-121.98-52.498-90.713 0-164.83 74.115-164.83 165.6 0 13.124 1.5441 25.863 4.2462 37.829-137.42-6.9483-259.79-72.957-341.24-172.93-14.283 24.319-22.389 52.884-22.389 82.993 0 57.516 28.951 108.47 73.729 137.42-27.407 0-52.884-7.7203-75.273-19.301v1.158c0 80.291 57.13 147.46 132.79 162.51-13.897 3.8601-28.565 5.7902-43.62 5.7902-10.422 0-20.845-1.158-30.881-3.0881 20.845 65.236 81.449 113.87 154.41 115.03-56.358 44.778-127.77 71.027-205.75 71.027-13.124 0-26.249-0.77203-39.373-2.3161 73.343 47.094 160.58 74.501 254 74.501 304.18 0 471.32-252.45 471.32-471.32 0-7.3343 0-14.283-0.38602-21.617 32.425-23.161 60.218-52.498 82.607-86.081z" stroke-width="38.601"/>
</svg>
