<svg width="1e3" height="1e3" version="1.1" viewBox="0 0 1e3 1e3" xmlns="http://www.w3.org/2000/svg">
 <path d="m311.95 541.79v-83.578h585.04v83.578h-585.04m0 250.73v-83.578h585.04v83.578h-585.04m0-501.47v-83.578h585.04v83.578h-585.04m-167.16 41.789v-125.37h-41.789v-41.789h83.578v167.16h-41.789m-41.789 376.1v-41.789h125.37v167.16h-125.37v-41.789h83.578v-20.894h-41.789v-41.789h41.789v-20.894h-83.578m94.025-292.52a31.342 31.342 0 0 1 31.342 31.342c0 8.3578-3.3431 16.298-8.7757 21.73l-69.787 72.295h78.563v41.789h-125.37v-38.446l83.578-86.921h-83.578v-41.789z" stroke-width="41.789"/>
</svg>
