<svg width="1e3" height="1e3" version="1.1" viewBox="0 0 1e3 1e3" xmlns="http://www.w3.org/2000/svg">
 <path d="m787.01 418h-82.004v-82.004h82.004m0 205.01h-82.004v-82.004h82.004m-123.01-41.002h-82.004v-82.004h82.004m0 205.01h-82.004v-82.004h82.004m0 246.01h-328.02v-82.004h328.02m-369.02-205.01h-82.004v-82.004h82.004m0 205.01h-82.004v-82.004h82.004m41.002 0h82.004v82.004h-82.004m0-205.01h82.004v82.004h-82.004m123.01 41.002h82.004v82.004h-82.004m0-205.01h82.004v82.004h-82.004m369.02-205.01h-656.03c-45.512 0-82.004 36.492-82.004 82.004v410.02a82.004 82.004 0 0 0 82.004 82.004h656.03a82.004 82.004 0 0 0 82.004-82.004v-410.02c0-45.512-36.902-82.004-82.004-82.004z" stroke-width="41.002"/>
</svg>
