<svg width="1e3" height="1e3" version="1.1" viewBox="0 0 1e3 1e3" xmlns="http://www.w3.org/2000/svg">
 <path d="m383.98 104c-74.583-0.39462-147.19 71.426-114.05 160.61h-125.09a78.924 78.924 0 0 0-78.924 78.924v78.924a39.462 39.462 0 0 0 39.462 39.462h355.16v-118.39h78.924v118.39h355.16a39.462 39.462 0 0 0 39.462-39.462v-78.924a78.924 78.924 0 0 0-78.924-78.924h-125.09c46.17-129.04-127.46-220.2-207.57-108.92l-22.493 29.991-22.493-30.78c-24.861-35.121-59.193-50.511-93.525-50.906m-2.3677 81.686c35.121 0 52.879 42.619 28.018 67.48-24.861 24.861-67.48 7.1032-67.48-28.018a39.462 39.462 0 0 1 39.462-39.462m236.77 0c35.121 0 52.879 42.619 28.018 67.48-24.861 24.861-67.48 7.1032-67.48-28.018a39.462 39.462 0 0 1 39.462-39.462m-513.01 315.7v315.7a78.924 78.924 0 0 0 78.924 78.924h631.39a78.924 78.924 0 0 0 78.924-78.924v-315.7h-355.16v315.7h-78.924v-315.7z" stroke-width="39.462"/>
</svg>
