<svg width="1e3" height="1e3" version="1.1" viewBox="0 0 1e3 1e3" xmlns="http://www.w3.org/2000/svg">
 <path d="m744.4 464.81c-10.12-13.2-22.001-24.641-33.441-36.081-28.601-26.401-61.602-45.321-89.323-73.042-64.242-64.242-77.442-170.28-37.401-251.69-40.041 10.12-77.002 33.001-107.8 58.082-111.76 91.523-155.76 253.01-102.96 391.61 1.76 4.4001 3.5201 8.8002 3.5201 14.52 0 9.6803-6.6002 18.481-15.4 22.001-9.6803 4.4001-20.241 1.76-28.161-5.2802-2.6401-2.2001-4.4001-4.4001-6.6002-7.4802-48.401-62.922-56.322-153.12-23.321-225.29-72.162 59.842-111.32 161.04-105.16 256.53 1.76 22.001 4.4001 44.001 11.88 66.002 6.1602 26.401 17.6 52.802 31.681 76.122 45.761 76.122 126.28 130.68 212.97 141.68 92.403 11.88 191.41-5.2802 262.25-70.402 79.202-73.042 107.8-190.09 66.002-290.41l-5.7202-11.44c-8.8002-20.241-20.681-38.281-35.201-55.002l2.2001-0.44001m-136.4 277.21c-12.32 10.56-32.121 22.001-47.521 26.401-48.401 17.601-96.803-7.0402-126.28-36.081 52.361-12.32 83.162-51.041 91.963-90.203 7.4802-35.201-6.1602-64.242-11.88-98.123-5.2802-32.561-4.4001-60.282 7.9202-90.643 7.4802 16.72 16.28 33.441 26.401 46.641 33.441 44.001 85.802 63.362 96.803 123.2 1.76 6.1602 2.6401 12.32 2.6401 18.921 1.32 36.081-14.08 75.682-40.481 99.883z" stroke-width="44.001"/>
</svg>
