<svg width="1e3" height="1e3" version="1.1" viewBox="0 0 1e3 1e3" xmlns="http://www.w3.org/2000/svg">
 <path d="m539.6 737.6h39.6a39.6 39.6 0 0 1 39.6 39.6h277.2v79.2h-277.2a39.6 39.6 0 0 1-39.6 39.6h-158.4a39.6 39.6 0 0 1-39.6-39.6h-277.2v-79.2h277.2a39.6 39.6 0 0 1 39.6-39.6h39.6v-79.2h-277.2a39.6 39.6 0 0 1-39.6-39.6v-158.4a39.6 39.6 0 0 1 39.6-39.6h633.6a39.6 39.6 0 0 1 39.6 39.6v158.4a39.6 39.6 0 0 1-39.6 39.6h-277.2v79.2m-356.4-633.6h633.6a39.6 39.6 0 0 1 39.6 39.6v158.4a39.6 39.6 0 0 1-39.6 39.6h-633.6a39.6 39.6 0 0 1-39.6-39.6v-158.4a39.6 39.6 0 0 1 39.6-39.6m198 158.4h39.6v-79.2h-39.6v79.2m0 316.8h39.6v-79.2h-39.6v79.2m-158.4-396v79.2h79.2v-79.2h-79.2m0 316.8v79.2h79.2v-79.2z" stroke-width="39.6"/>
</svg>
