<svg width="1e3" height="1e3" version="1.1" viewBox="0 0 1e3 1e3" xmlns="http://www.w3.org/2000/svg">
 <path d="m161.42 500c0-71.478 58.102-129.58 129.58-129.58h167.2v-79.42h-167.2a209 209 0 0 0-209 209 209 209 0 0 0 209 209h167.2v-79.42h-167.2c-71.478 0-129.58-58.102-129.58-129.58m171.38 41.8h334.4v-83.6h-334.4v83.6m376.2-250.8h-167.2v79.42h167.2c71.478 0 129.58 58.102 129.58 129.58s-58.102 129.58-129.58 129.58h-167.2v79.42h167.2a209 209 0 0 0 209-209 209 209 0 0 0-209-209z" stroke-width="41.8"/>
</svg>
