<svg width="1e3" height="1e3" version="1.1" viewBox="0 0 1e3 1e3" xmlns="http://www.w3.org/2000/svg">
 <g transform="matrix(1.094 0 0 1.094 83.895 -9.7712)">
  <path d="m90.492 104a30.657 30.657 0 0 0-30.457 30.658v122.63a30.657 30.657 0 0 0 30.656 30.658h490.52a30.657 30.657 0 0 0 30.656-30.658v-122.63a30.657 30.657 0 0 0-30.656-30.658h-490.52a30.657 30.657 0 0 0-0.19922 0zm30.857 61.314h61.314v61.314h-61.314zm122.63 0h30.658v61.314h-30.658zm-153.49 183.95a30.657 30.657 0 0 0-30.457 30.656v122.63a30.657 30.657 0 0 0 30.656 30.656h425.95a220.62 220.62 0 0 1 88.012-18.316 220.62 220.62 0 0 1 4.5996 0.0488 30.657 30.657 0 0 0 2.6152-12.389v-122.63a30.657 30.657 0 0 0-30.656-30.656h-490.52a30.657 30.657 0 0 0-0.19922 0zm30.857 61.314h61.314v61.314h-61.314zm122.63 0h30.658v61.314h-30.658zm-153.49 183.95a30.657 30.657 0 0 0-30.457 30.656v122.63a30.657 30.657 0 0 0 30.656 30.656h297.57a220.62 220.62 0 0 1-4.2226-42.959 220.62 220.62 0 0 1 50.926-140.98h-344.27a30.657 30.657 0 0 0-0.19922 0zm30.857 61.314h61.314v61.314h-61.314zm122.63 0h30.658v61.314h-30.658z" stroke-width="30.657"/>
  <path d="m604.69 792.18a56.68 56.68 0 0 1-56.68-56.68 56.68 56.68 0 0 1 56.68-56.68 56.68 56.68 0 0 1 56.68 56.68 56.68 56.68 0 0 1-56.68 56.68m120.32-40.972c0.64779-5.1821 1.1336-10.364 1.1336-15.708 0-5.3442-0.48581-10.688-1.1336-16.194l34.17-26.397c3.077-2.4291 3.8866-6.8017 1.9434-10.364l-32.389-56.033c-1.9433-3.5627-6.3159-5.0202-9.8786-3.5627l-40.324 16.194c-8.4211-6.3158-17.166-11.822-27.369-15.87l-5.9919-42.915c-0.64777-3.8866-4.0486-6.8016-8.0972-6.8016h-64.778c-4.0486 0-7.4494 2.915-8.0972 6.8016l-5.9919 42.915c-10.202 4.0486-18.947 9.5547-27.369 15.87l-40.324-16.194c-3.5628-1.4575-7.9352 0-9.8786 3.5627l-32.389 56.033c-2.1053 3.5627-1.1336 7.9353 1.9433 10.364l34.17 26.397c-0.64777 5.5061-1.1336 10.85-1.1336 16.194 0 5.3442 0.48583 10.526 1.1336 15.708l-34.17 26.883c-3.0769 2.429-4.0486 6.8016-1.9433 10.364l32.389 56.033c1.9433 3.5627 6.3158 4.8584 9.8786 3.5627l40.324-16.356c8.4211 6.4777 17.166 11.984 27.369 16.032l5.9919 42.915c0.64778 3.8866 4.0486 6.8016 8.0972 6.8016h64.778c4.0486 0 7.4494-2.915 8.0972-6.8016l5.9919-42.915c10.202-4.2106 18.947-9.5547 27.369-16.032l40.324 16.356c3.5627 1.2957 7.9352 0 9.8786-3.5627l32.389-56.033c1.9432-3.5627 1.1336-7.9353-1.9434-10.364z" stroke-width="16.194"/>
 </g>
</svg>
