<svg width="1e3" height="1e3" version="1.1" viewBox="0 0 1e3 1e3" xmlns="http://www.w3.org/2000/svg">
 <path d="m499.44 104c-52.939 0-100.04 33.347-117.55 83.368h-257.61v83.368h81.284l-122.97 291.79c-19.592 83.368 41.684 125.05 145.89 125.05 104.21 0 169.24-41.684 145.89-125.05l-122.97-291.79h130.05c13.756 35.432 40.851 62.526 76.282 76.282v465.61h-375.16v83.368h833.68v-83.368h-375.16v-466.03c35.432-13.339 62.526-40.434 75.865-75.865h130.47l-122.97 291.79c-19.592 83.368 41.684 125.05 145.89 125.05 104.21 0 169.24-41.684 145.89-125.05l-122.97-291.79h81.284v-83.368h-257.19c-17.924-50.021-65.027-83.368-117.97-83.368m0 83.368a41.684 41.684 0 0 1 41.684 41.684 41.684 41.684 0 0 1-41.684 41.684 41.684 41.684 0 0 1-41.684-41.684 41.684 41.684 0 0 1 41.684-41.684m-270.95 218.84 62.526 156.32h-125.05l62.526-156.32m541.89 0 62.526 156.32h-125.05z" stroke-width="41.684"/>
</svg>
