<svg width="1e3" height="1e3" version="1.1" viewBox="0 0 1e3 1e3" xmlns="http://www.w3.org/2000/svg">
 <path d="m212 104h576a36 36 0 0 1 36 36v144a36 36 0 0 1-36 36h-576a36 36 0 0 1-36-36v-144a36 36 0 0 1 36-36m0 288h576a36 36 0 0 1 36 36v144a36 36 0 0 1-36 36h-576a36 36 0 0 1-36-36v-144a36 36 0 0 1 36-36m0 288h576a36 36 0 0 1 36 36v144a36 36 0 0 1-36 36h-576a36 36 0 0 1-36-36v-144a36 36 0 0 1 36-36m180-432h36v-72h-36v72m0 288h36v-72h-36v72m0 288h36v-72h-36v72m-144-648v72h72v-72h-72m0 288v72h72v-72h-72m0 288v72h72v-72z" stroke-width="36"/>
</svg>
