<svg width="1e3" height="1e3" version="1.1" viewBox="0 0 1e3 1e3" xmlns="http://www.w3.org/2000/svg">
 <path d="m895.73 487.07v-206.83l-176.02-176.02h-528.07c-48.406 0-88.011 39.605-88.011 88.011v616.08c0 48.406 39.605 88.011 88.011 88.011h294.84c-13.202-30.804-22.003-61.608-26.403-96.812-52.807-17.602-92.412-66.009-92.412-123.22 0-74.81 57.207-132.02 132.02-132.02 13.202 0 26.403 4.4006 39.605 8.8011 57.207-61.608 136.42-96.813 224.43-96.813 48.406 0 92.412 8.8012 132.02 30.804m-264.03-118.82h-440.06v-176.02h440.06v176.02m343.24 453.26-48.406-35.205v-44.006l48.406-35.205c4.4006-4.4006 4.4006-8.8011 4.4006-13.202l-44.006-74.81c-4.4006-4.4006-8.8012-4.4006-13.202-4.4006l-57.207 17.602c-13.202-8.8011-22.003-13.202-39.605-22.003l-8.8012-57.207c0-4.4006-4.4006-8.8011-8.8011-8.8011h-88.011c-4.4006 0-8.8011 4.4006-13.202 8.8011l-8.8011 57.207c-13.202 4.4006-26.403 13.202-35.205 22.003l-52.807-22.003c-4.4006 0-8.8011 0-13.202 4.4006l-44.006 74.81c-4.4006 4.4006 0 8.8011 4.4006 13.202l48.406 35.205v44.006l-48.406 35.205c-4.4006 4.4006-4.4006 8.8011-4.4006 13.202l44.006 74.81c4.4006 4.4006 8.8011 4.4006 13.202 4.4006l52.807-22.003c13.202 8.8011 22.003 13.202 35.205 22.003l8.8011 57.207c0 4.4006 4.4006 8.8011 13.202 8.8011h88.011c4.4006 0 8.8011-4.4006 8.8011-8.8011l8.8012-57.207c13.202-4.4006 26.403-13.202 35.205-22.003l52.807 22.003c4.4006 0 13.202 0 13.202-4.4006l44.006-74.81c8.8011 0 8.8011-4.4006 4.4006-8.8011m-211.23 8.8011c-35.205 0-66.009-30.804-66.009-66.009 0-35.205 30.804-66.009 66.009-66.009s66.009 30.804 66.009 66.009c0 35.205-30.804 66.009-66.009 66.009z" stroke-width="44.006"/>
</svg>
