<svg width="1e3" height="1e3" version="1.1" viewBox="0 0 1e3 1e3" xmlns="http://www.w3.org/2000/svg">
 <path d="m575.8 640.48 255.52 255.52 89.857-91.986-255.52-255.52-89.857 91.986m158.42-221.45c-16.609 0-34.495-2.1293-48.548-8.0914l-485.06 482.93-89.857-89.857 315.56-315.14-75.378-75.804-30.662 29.81-61.75-60.047v121.8l-29.81 29.81-149.9-151.61 29.81-29.81h119.67l-59.621-60.047 151.61-151.61c49.826-49.826 129.89-49.826 179.71 0l-89.857 91.986 60.047 59.621-30.236 30.236 76.229 75.804 77.507-80.062c-5.9621-14.053-8.5173-31.94-8.5173-47.697 0-83.895 66.435-149.9 149.05-149.9 25.126 0 47.271 5.9621 67.286 17.886l-113.71 113.71 63.879 63.879 113.71-113.71c11.924 20.016 17.886 41.309 17.886 68.138 0 81.766-66.009 147.77-149.05 147.77z" stroke-width="42.586"/>
</svg>
