<svg width="1e3" height="1e3" version="1.1" viewBox="0 0 1e3 1e3" xmlns="http://www.w3.org/2000/svg">
 <path d="m595.91 471.08c104.02 0 187.24 83.216 187.24 187.24 0 36.615-10.402 71.15-28.71 99.86l128.15 128.99-57.835 57.835-129.82-127.74c-28.71 17.892-62.828 28.294-99.028 28.294-104.02 0-187.24-83.216-187.24-187.24 0-104.02 83.216-187.24 187.24-187.24m0 83.216a104.02 104.02 0 0 0-104.02 104.02 104.02 104.02 0 0 0 104.02 104.02 104.02 104.02 0 0 0 104.02-104.02 104.02 104.02 0 0 0-104.02-104.02m-395.28 332.87a83.216 83.216 0 0 1-83.216-83.216v-665.73c0-46.185 37.447-83.216 83.216-83.216h41.608v291.26l104.02-62.412 104.02 62.412v-291.26h249.65a83.216 83.216 0 0 1 83.216 83.216v324.96c-48.682-46.601-114.42-75.311-187.24-75.311a270.45 270.45 0 0 0-270.45 270.45c0 96.115 50.346 181 126.07 228.85z" stroke-width="41.608"/>
</svg>
