<svg width="1e3" height="1e3" version="1.1" viewBox="0 0 1e3 1e3" xmlns="http://www.w3.org/2000/svg">
 <path d="m872.64 483.37-356.4-356.4c-14.652-14.652-34.848-22.968-55.836-22.968h-277.2a79.2 79.2 0 0 0-79.2 79.2v277.2c0 20.988 8.316 41.184 23.364 55.836l16.236 15.84c35.64-21.384 76.824-32.076 118.8-32.076a237.6 237.6 0 0 1 237.6 237.6c0 41.976-11.088 82.764-32.472 118.8l15.84 15.84c14.652 15.048 35.244 23.76 56.232 23.76s41.184-8.316 55.836-23.364l277.2-277.2c15.048-14.652 23.364-34.848 23.364-55.836s-8.316-41.184-23.364-56.232m-630.04-181.37a59.4 59.4 0 0 1-59.4-59.4 59.4 59.4 0 0 1 59.4-59.4 59.4 59.4 0 0 1 59.4 59.4 59.4 59.4 0 0 1-59.4 59.4m178.2 475.2h-118.8v118.8h-79.2v-118.8h-118.8v-79.2h118.8v-118.8h79.2v118.8h118.8z" stroke-width="39.6"/>
</svg>
