<svg width="1e3" height="1e3" version="1.1" viewBox="0 0 1e3 1e3" xmlns="http://www.w3.org/2000/svg">
 <path d="m242.6 302a59.4 59.4 0 0 1-59.4-59.4 59.4 59.4 0 0 1 59.4-59.4 59.4 59.4 0 0 1 59.4 59.4 59.4 59.4 0 0 1-59.4 59.4m630.04 181.37-356.4-356.4c-14.256-14.256-34.056-22.968-55.836-22.968h-277.2c-43.956 0-79.2 35.244-79.2 79.2v277.2c0 21.78 8.712 41.58 23.364 55.836l356 356.4c14.652 14.256 34.452 23.364 56.232 23.364s41.58-9.108 55.836-23.364l277.2-277.2c14.652-14.256 23.364-34.056 23.364-55.836 0-22.176-9.108-41.976-23.364-56.232z" stroke-width="39.6"/>
</svg>
