<svg width="1e3" height="1e3" version="1.1" viewBox="0 0 1e3 1e3" xmlns="http://www.w3.org/2000/svg">
 <path d="m777.2 579.2h158.4v-475.2h-158.4m-158.4 0h-356.4c-32.868 0-60.984 19.8-72.864 48.312l-119.59 279.18c-3.564 9.108-5.544 18.612-5.544 28.908v79.2a79.2 79.2 0 0 0 79.2 79.2h249.88l-37.62 180.97c-0.792 3.96-1.188 7.92-1.188 12.276 0 16.632 6.732 31.284 17.424 41.976l41.976 41.976 260.57-260.96c14.652-14.256 23.364-34.056 23.364-55.836v-396c0-43.956-35.64-79.2-79.2-79.2z" stroke-width="39.6"/>
</svg>
