<svg width="1e3" height="1e3" version="1.1" viewBox="0 0 1e3 1e3" xmlns="http://www.w3.org/2000/svg">
 <path d="m892.04 377.24-67.32 39.6-158.4-273.24 67.32-39.6 158.4 273.24m-479.16-39.6 118.8 205.92 241.56-138.6-118.8-205.92-241.56 138.6m63.36 190.08-79.2-138.6-170.28 99 79.2 138.6 170.28-99m-368.28 75.24 39.6 67.32 102.96-59.4-39.6-67.32-102.96 59.4m396-23.76-11.88-15.84-170.28 99 11.88 15.84c7.92 11.88 19.8 23.76 31.68 31.68l-63.36 186.12h79.2l55.44-170.28h3.96l59.4 170.28h79.2l-75.24-221.76c19.8-27.72 19.8-63.36 0-95.04z" stroke-width="39.6"/>
</svg>
