<svg width="1e3" height="1e3" version="1.1" viewBox="0 0 1e3 1e3" xmlns="http://www.w3.org/2000/svg">
 <path d="m935.6 460.4c0-43.956-35.64-79.2-79.2-79.2h-250.27l38.016-180.97c0.792-3.96 1.188-8.316 1.188-12.672 0-16.236-6.732-31.284-17.424-41.976l-41.976-41.58-260.57 260.57c-14.652 14.652-23.364 34.452-23.364 56.232v396a79.2 79.2 0 0 0 79.2 79.2h356.4c32.868 0 60.984-19.8 72.864-48.312l119.59-279.18c3.564-9.108 5.544-18.612 5.544-28.908v-79.2m-871.2 435.6h158.4v-475.2h-158.4z" stroke-width="39.6"/>
</svg>
