<svg width="1e3" height="1e3" version="1.1" viewBox="0 0 1e3 1e3" xmlns="http://www.w3.org/2000/svg">
 <path d="m500 420.8a79.2 79.2 0 0 1 79.2 79.2c0 19.8-7.128 37.224-18.612 51.084l125.53 344.91h-84.348l-101.77-279.97-101.77 279.97h-84.348l125.53-344.91c-11.484-13.86-18.612-31.284-18.612-51.084a79.2 79.2 0 0 1 79.2-79.2m0-79.2a158.4 158.4 0 0 0-158.4 158.4c0 19.8 3.96 39.6 11.088 57.816l-34.848 95.04c-34.452-41.58-55.44-94.644-55.44-152.86a237.6 237.6 0 0 1 237.6-237.6 237.6 237.6 0 0 1 237.6 237.6c0 58.212-20.988 111.28-55.44 152.86l-34.848-95.04c7.128-18.216 11.088-38.016 11.088-57.816a158.4 158.4 0 0 0-158.4-158.4m0-158.4a316.8 316.8 0 0 0-316.8 316.8c0 93.456 39.6 178.2 104.54 235.22l-28.512 79.2c-94.248-72.468-155.23-186.52-155.23-314.42a396 396 0 0 1 396-396 396 396 0 0 1 396 396c0 127.91-60.984 241.96-155.23 314.42l-28.512-79.2c64.944-57.024 104.54-141.77 104.54-235.22a316.8 316.8 0 0 0-316.8-316.8z" stroke-width="39.6"/>
</svg>
