<svg width="1e3" height="1e3" version="1.1" viewBox="0 0 1e3 1e3" xmlns="http://www.w3.org/2000/svg">
 <path d="m500 163.13a168.43 168.43 0 0 1 168.43 168.43 168.43 168.43 0 0 1-168.43 168.43 168.43 168.43 0 0 1-168.43-168.43 168.43 168.43 0 0 1 168.43-168.43m0 84.217a84.217 84.217 0 0 0-84.217 84.217 84.217 84.217 0 0 0 84.217 84.217 84.217 84.217 0 0 0 84.217-84.217 84.217 84.217 0 0 0-84.217-84.217m0 294.76c112.43 0 336.87 56.004 336.87 168.43v126.33h-673.74v-126.33c0-112.43 224.44-168.43 336.87-168.43m0 80.006c-125.06 0-256.86 61.479-256.86 88.428v46.32h513.73v-46.32c0-26.95-131.8-88.428-256.86-88.428z" stroke-width="42.109"/>
</svg>
