<svg width="1e3" height="1e3" version="1.1" viewBox="0 0 1e3 1e3" xmlns="http://www.w3.org/2000/svg">
 <path d="m368.65 251.34 68.7 117.53c-111.48 11.234-196.6 104.13-196.6 216.04a216.04 216.04 0 0 0 216.04 216.04c88.576 0 164.62-53.146 197.89-129.62h-111.48v-86.416h345.66v86.416h-97.218c-17.715 67.836-55.306 127.9-106.29 172.83h117.09v86.416h-691.33v-86.416h117.09c-71.725-63.516-117.09-155.98-117.09-259.25 0-156.84 106.29-293.81 257.52-333.56m141.72-181.91 32.838 56.17 37.159-21.604 151.23 261.84-149.93 86.416-151.23-261.84 37.591-21.604-32.838-56.17z" stroke-width="43.208"/>
</svg>
