<svg width="1e3" height="1e3" version="1.1" viewBox="0 0 1e3 1e3" xmlns="http://www.w3.org/2000/svg">
 <path d="m626.33 584.22c-112.43 0-336.87 56.004-336.87 168.43v84.217h673.74v-84.217c0-112.43-224.44-168.43-336.87-168.43m0-84.217a168.43 168.43 0 0 0 168.43-168.43 168.43 168.43 0 0 0-168.43-168.43 168.43 168.43 0 0 0-168.43 168.43 168.43 168.43 0 0 0 168.43 168.43m-421.09 53.899 103.17 62.742-27.371-118.33 92.639-79.164-121.69-10.527-46.741-111.17-47.583 111.17-120.85 10.527 91.797 79.164-28.634 118.33z" stroke-width="42.109"/>
</svg>
