<svg width="1e3" height="1e3" version="1.1" viewBox="0 0 1e3 1e3" xmlns="http://www.w3.org/2000/svg">
 <path d="m626.33 584.22c-112.43 0-336.87 56.004-336.87 168.43v84.217h673.74v-84.217c0-112.43-224.44-168.43-336.87-168.43m-378.98-168.43v-126.33h-84.217v126.33h-126.33v84.217h126.33v126.33h84.217v-126.33h126.33v-84.217m252.65 84.217a168.43 168.43 0 0 0 168.43-168.43 168.43 168.43 0 0 0-168.43-168.43 168.43 168.43 0 0 0-168.43 168.43 168.43 168.43 0 0 0 168.43 168.43z" stroke-width="42.109"/>
</svg>
