<svg width="1e3" height="1e3" version="1.1" viewBox="0 0 1e3 1e3" xmlns="http://www.w3.org/2000/svg">
 <path d="m826.18 639.76s-93.176 101.1-93.176 163.06a93.176 93.176 0 0 0 93.176 93.176 93.176 93.176 0 0 0 93.176-93.176c0-61.962-93.176-163.06-93.176-163.06m-642.45-69.882 223.16-223.16 223.16 223.16m82.461-49.384-416.5-416.5-65.689 65.689 110.88 110.88-239.93 239.93c-27.487 26.089-27.487 71.28 0 98.767l256.24 256.24c13.511 13.511 31.68 20.499 49.384 20.499 17.704 0 35.873-6.9882 49.384-20.499l256.24-256.24c27.487-27.487 27.487-72.678 0-98.767z" stroke-width="46.588"/>
</svg>
