<svg width="1e3" height="1e3" version="1.1" viewBox="0 0 1e3 1e3" xmlns="http://www.w3.org/2000/svg">
 <path d="m97.025 458.06c-20.163-11.291-26.212-35.89-14.921-55.246l60.489-104.44c4.4358-8.0652 11.291-13.711 18.953-16.937l315.75-177.43c6.4521-4.8391 14.517-7.2587 22.986-7.2587s16.534 2.4196 22.986 7.2587l318.57 179.05c7.6619 4.0326 14.114 10.485 17.743 18.55l58.473 101.62c11.291 19.356 4.4358 43.955-14.517 54.843l-40.326 23.389v200.02c0 15.324-8.4684 28.631-21.373 35.487l-318.57 179.05c-6.4521 4.8391-14.517 7.2587-22.986 7.2587s-16.534-2.4196-22.986-7.2587l-318.57-179.05c-12.904-6.8554-21.373-20.163-21.373-35.487v-223.41c-12.098 6.8554-27.422 7.2587-40.326 0m403.26-274.62v270.18l240.34-135.09-240.34-135.09m-282.28 474.23 241.96 136.3v-270.59l-241.96-135.9v270.18m564.56 0v-129.85l-201.63 116.95c-13.308 7.2586-28.228 6.8554-40.326 0.40326v148.8l241.96-136.3m-207.68-102.83 253.25-146.38-23.389-40.729-253.25 146.38z" stroke-width="40.326"/>
</svg>
