<svg width="1e3" height="1e3" version="1.1" viewBox="0 0 1e3 1e3" xmlns="http://www.w3.org/2000/svg">
 <path d="m500 224.13a133.18 133.18 0 0 1 133.18 133.18 133.18 133.18 0 0 1-133.18 133.18 133.18 133.18 0 0 1-133.18-133.18 133.18 133.18 0 0 1 133.18-133.18m-266.36 95.127c21.308 0 41.095 5.7076 58.218 15.981-5.7076 54.413 10.274 108.44 42.997 150.68-19.025 36.529-57.076 61.642-101.22 61.642a114.15 114.15 0 0 1-114.15-114.15 114.15 114.15 0 0 1 114.15-114.15m532.71 0a114.15 114.15 0 0 1 114.15 114.15 114.15 114.15 0 0 1-114.15 114.15c-44.139 0-82.19-25.114-101.22-61.642 32.724-42.236 48.705-96.268 42.997-150.68 17.123-10.274 36.909-15.981 58.218-15.981m-513.69 390.02c0-78.765 110.73-142.69 247.33-142.69s247.33 63.925 247.33 142.69v66.589h-494.66v-66.589m-209.28 66.589v-57.076c0-52.891 71.916-97.41 169.33-110.35-22.45 25.875-36.148 61.642-36.148 100.83v66.589h-133.18m913.22 0h-133.18v-66.589c0-39.192-13.698-74.96-36.148-100.83 97.41 12.937 169.33 57.457 169.33 110.35z" stroke-width="38.051"/>
</svg>
