<svg width="1e3" height="1e3" version="1.1" viewBox="0 0 1e3 1e3" xmlns="http://www.w3.org/2000/svg">
 <path d="m500 224.13a137.93 137.93 0 0 0-137.93 137.93 137.93 137.93 0 0 0 137.93 137.93 137.93 137.93 0 0 0 137.93-137.93 137.93 137.93 0 0 0-137.93-137.93m0 78.819a59.115 59.115 0 0 1 59.115 59.115 59.115 59.115 0 0 1-59.115 59.115 59.115 59.115 0 0 1-59.115-59.115 59.115 59.115 0 0 1 59.115-59.115m-256.16 39.41a98.524 98.524 0 0 0-98.524 98.524c0 37.045 20.887 68.967 50.839 85.913 14.188 7.8819 30.345 12.611 47.686 12.611 17.34 0 33.498-4.7292 47.686-12.611 14.582-8.276 26.799-20.099 35.863-34.286-28.769-37.439-44.139-83.154-44.139-130.45v-11.035c-11.823-5.5174-25.222-8.6701-39.41-8.6701m512.33 0c-14.188 0-27.587 3.1528-39.41 8.6701v11.035c0 47.292-15.37 93.007-44.139 130.45 4.7292 7.4878 9.8524 13.399 15.764 19.311 6.3056 5.9115 12.611 11.035 20.099 14.976 14.188 7.8819 30.345 12.611 47.686 12.611s33.498-4.7292 47.686-12.611c29.951-16.946 50.838-48.868 50.838-85.913a98.524 98.524 0 0 0-98.524-98.524m-256.16 236.46c-92.219 0-275.87 46.109-275.87 137.93v59.115h551.74v-59.115c0-91.825-183.65-137.93-275.87-137.93m-287.3 21.675c-76.061 9.0642-185.62 47.686-185.62 116.26v59.115h118.23v-76.061c0-39.804 27.193-72.908 67.391-99.312m574.59 0c40.198 26.405 67.391 59.509 67.391 99.312v76.061h118.23v-59.115c0-68.573-109.56-107.19-185.62-116.26m-287.3 57.144c60.297 0 127.69 19.705 166.7 39.41h-333.41c39.016-19.705 106.41-39.41 166.7-39.41z" stroke-width="39.41"/>
</svg>
