<svg width="1e3" height="1e3" version="1.1" viewBox="0 0 1e3 1e3" xmlns="http://www.w3.org/2000/svg">
 <path d="m770.87 104.4c100.39 17.131 129.08 86.052 127.48 158.16v-1.5936l-45.416 594.8-588.82 40.237h0.39839c-49.002-1.992-157.76-6.7726-162.94-158.96l54.579-99.598 110.35 257.36 94.02-303.57-1.992 0.39839 0.79679-0.79678 307.16 98.004-79.28-309.95 292.82-18.326-230.67-188.84 121.51-67.726v0.39839m-669.3 631.05v0.79678-0.79678m170.51-465.32c117.92-117.53 270.51-186.85 329.07-127.48 58.165 58.563-3.1871 202.78-121.11 319.91-119.52 117.13-269.71 190.43-328.27 131.47-58.563-59.36 1.5936-206.76 119.92-323.89z" stroke-width="39.839"/>
</svg>
