<svg width="1e3" height="1e3" version="1.1" viewBox="0 0 1e3 1e3" xmlns="http://www.w3.org/2000/svg">
 <path d="m896 104h-277.25v277.25l103.51-103.51c49.904 50.366 81.326 119.22 81.326 195.92 0 46.208-11.552 89.643-31.421 128l67.463 67.463c35.58-56.835 56.373-123.37 56.373-195.46 0-102.12-42.049-194.07-109.05-260.61l109.05-109.05m-792 65.153 109.05 109.05c-35.58 56.835-56.373 123.37-56.373 195.46 0 102.12 42.049 194.07 109.05 260.61l-109.05 109.05h277.25v-277.25l-103.51 103.51c-49.904-50.366-81.326-119.22-81.326-195.92 0-46.208 11.552-89.643 31.421-128l373.36 373.36c-12.014 6.007-23.104 11.552-35.118 15.711v96.574c36.504-9.7036 71.16-24.952 102.58-44.359l109.05 109.05 58.684-58.684-725.92-726.85-59.146 58.684m329.92 43.435v-96.574c-36.966 9.7036-71.622 24.952-103.04 44.359l67.463 67.463c12.476-5.5449 23.104-11.09 35.58-15.249z" stroke-width="46.208"/>
</svg>
