<svg width="1e3" height="1e3" version="1.1" viewBox="0 0 1e3 1e3" xmlns="http://www.w3.org/2000/svg">
 <path d="m762.55 739.86c-11.57-35.6-44.945-61.855-84.55-61.855h-44.5v-133.5a44.5 44.5 0 0 0-44.5-44.5h-267v-89h89a44.5 44.5 0 0 0 44.5-44.5v-89h89a89 89 0 0 0 89-89v-18.245c130.38 52.51 222.5 180.22 222.5 329.74 0 92.56-35.6 176.66-93.45 239.86m-307.05 113.03c-175.78-21.805-311.5-171.32-311.5-352.88 0-27.59 3.56-54.29 9.345-79.655l213.16 213.16v44.5a89 89 0 0 0 89 89m44.5-712a445 445 0 0 0-445 445 445 445 0 0 0 445 445 445 445 0 0 0 445-445 445 445 0 0 0-445-445z" stroke-width="44.5"/>
</svg>
