<svg width="1e3" height="1e3" version="1.1" viewBox="0 0 1e3 1e3" xmlns="http://www.w3.org/2000/svg">
 <path d="m143.6 104c-43.956 0-79.199 35.243-79.199 79.199v475.2a79.2 79.2 0 0 0 79.199 79.199h277.2v79.201h-79.201v79.199h225.68a300.36 300.36 0 0 1-125.68-237.6h-298.01v-475.2h712.8v190.73a300.36 300.36 0 0 1 79.199 48.125v-238.86c0-43.956-35.639-79.199-79.199-79.199h-712.8z" stroke-width="39.6"/>
 <path d="m690.39 780.36-128.75-128.75 36.308-36.565 92.442 92.442 195.44-195.44 36.308 36.565m-180.25-154.5a257.5 257.5 0 0 0-257.5 257.5 257.5 257.5 0 0 0 257.5 257.5 257.5 257.5 0 0 0 257.5-257.5 257.5 257.5 0 0 0-257.5-257.5z" stroke-width="25.75"/>
</svg>
