<svg width="1e3" height="1e3" version="1.1" viewBox="0 0 1e3 1e3" xmlns="http://www.w3.org/2000/svg">
 <path d="m203.51 203.5c-41.139 0-74.125 32.986-74.125 74.125v444.75c0 40.769 32.986 74.125 74.125 74.125h381.43a207.01 207.01 0 0 1-32.221-110.91 207.01 207.01 0 0 1 207.01-207.01 207.01 207.01 0 0 1 129.43 45.451l26.328-98.154h-632.66l-79.314 296.5v-370.62h630.06a74.125 74.125 0 0 0-74.125-74.125h-259.44l-74.125-74.125h-222.38z" stroke-width="37.062"/>
 <path d="m759.72 517.03a168.56 168.56 0 0 0-168.56 168.56 168.56 168.56 0 0 0 168.56 168.56 168.56 168.56 0 0 0 168.56-168.56 168.56 168.56 0 0 0-168.56-168.56zm0 33.711a134.85 134.85 0 0 1 134.85 134.85 134.85 134.85 0 0 1-134.85 134.85 134.85 134.85 0 0 1-134.85-134.85 134.85 134.85 0 0 1 134.85-134.85z" stroke-width="16.856"/>
</svg>
