<svg width="1e3" height="1e3" version="1.1" viewBox="0 0 1e3 1e3" xmlns="http://www.w3.org/2000/svg">
 <path d="m387.94 887.28c-156.04-28.235-253.96-115.39-282.85-251.75-18.16-85.723-9.855-143.12 37.767-261.01 39.925-98.833 39.488-135.15-2.0954-173.99-8.352-7.8026-15.185-16.334-15.185-18.959 0-8.7929 61.015-45.241 102.41-61.174 32.897-12.663 51.356-15.876 93.745-16.316 48.323-0.50267 56.054 1.0613 91.501 18.509 71.008 34.951 104.14 102.09 92.158 186.73-7.1467 50.465-20.977 77.247-73.533 142.39-24.667 30.576-52.248 71.392-61.292 90.703-37.04 79.085-31.891 187.61 11.035 232.61 22.629 23.721 24.894 19.765 8.1058-14.157-11.894-24.034-15.454-41.296-17.322-84.005-5.5084-125.94 47.696-202.99 187.44-271.44 61.135-29.943 70.577-36.654 87.777-62.387 10.6-15.859 28.875-33.978 40.611-40.264 20.57-11.017 21.423-12.757 23.689-48.354 1.4284-22.433 5.829-40.403 11.212-45.786 7.9137-7.9136 11.012-7.4366 28.977 4.4619 12.15 8.0474 25.909 25.444 34.745 43.935 9.9817 20.886 19.989 32.834 31.499 37.606 27.31 11.322 49.986 33.711 65.849 65.014 15.615 30.814 23.814 80.677 17.442 106.07-7.1436 28.463-50.572 40.016-99.426 26.451-21.831-6.0616-23.513-5.4749-45.302 15.802l-22.629 22.097 20.602 16.982c49.58 40.868 58.614 115.33 13.992 115.33-13.008 0-34.693-19.624-34.693-31.396 0-11.797-22.909-38.826-32.908-38.826-4.7583 0-12.579 9.3998-17.379 20.888-8.4931 20.327-8.2658 21.415 8.4568 40.461 34.487 39.279 37.66 88.818 10.032 156.63l-13.709 33.648h22.336c22.642 0 40.727 11.693 40.727 26.333 0 4.368-4.138 12.08-9.1957 17.137-7.911 7.9111-30.187 9.1223-159.46 8.6705-100.49-0.3511-165.12-3.2138-195.12-8.6419z" stroke-width="5.8518"/>
</svg>
