<svg width="1e3" height="1e3" version="1.1" viewBox="0 0 1e3 1e3" xmlns="http://www.w3.org/2000/svg">
 <path d="m203.51 203.5c-41.139 0-74.125 32.986-74.125 74.125v444.75a74.125 74.125 0 0 0 74.125 74.125h381.42a207.01 207.01 0 0 1-32.221-110.91 207.01 207.01 0 0 1 207.01-207.01 207.01 207.01 0 0 1 110.91 32.223v-159.04c0-41.139-33.356-74.125-74.125-74.125h-296.5l-74.129-74.131h-222.37z"/>
 <path d="m759.72 820.43a134.85 134.85 0 0 1-134.85-134.85 134.85 134.85 0 0 1 134.85-134.85 134.85 134.85 0 0 1 134.85 134.85 134.85 134.85 0 0 1-134.85 134.85m0-303.41a168.56 168.56 0 0 0-168.56 168.56 168.56 168.56 0 0 0 168.56 168.56 168.56 168.56 0 0 0 168.56-168.56 168.56 168.56 0 0 0-168.56-168.56m0 84.28a84.281 84.281 0 0 0-84.28 84.28 84.281 84.281 0 0 0 84.28 84.28 84.281 84.281 0 0 0 84.28-84.28 84.281 84.281 0 0 0-84.28-84.28z" stroke-width="16.856"/>
</svg>
