<svg width="1e3" height="1e3" version="1.1" viewBox="0 0 1e3 1e3" xmlns="http://www.w3.org/2000/svg">
 <path d="m104 104h158.4v39.6h277.2v-39.6h158.4v158.4h-39.6v118.8h79.2v-39.6h158.4v158.4h-39.6v237.6h39.6v158.4h-158.4v-39.6h-237.6v39.6h-158.4v-158.4h39.6v-79.2h-118.8v39.6h-158.4v-158.4h39.6v-277.2h-39.6v-158.4m633.6 396v-39.6h-79.2v79.2h39.6v158.4h-158.4v-39.6h-79.2v79.2h39.6v39.6h237.6v-39.6h39.6v-237.6h-39.6m-198-237.6v-39.6h-277.2v39.6h-39.6v277.2h39.6v39.6h118.8v-79.2h-39.6v-158.4h158.4v39.6h79.2v-118.8h-39.6m-39.6 237.6h-39.6v79.2h79.2v-39.6h39.6v-79.2h-79.2z" stroke-width="39.6"/>
</svg>
