<svg width="1e3" height="1e3" version="1.1" viewBox="0 0 1e3 1e3" xmlns="http://www.w3.org/2000/svg">
 <path d="m588 104a352 352 0 0 0-352 352 352 352 0 0 0 352 352 352 352 0 0 0 352-352 352 352 0 0 0-352-352m-399.08 168.08c-81.4 66.88-128.92 166.76-128.92 271.92a352 352 0 0 0 352 352c28.16 0 55.88-3.52 82.72-10.12-77.44-17.16-148.72-55.88-207.24-109.12-85.8-45.76-139.48-135.52-139.48-232.76 0-13.2 1.32-25.96 3.08-39.16-1.76-16.28-3.08-32.56-3.08-48.84 0-63.36 14.08-126.28 40.92-183.92m579.04 11.44 62.04 62.48-286 286-166.76-166.76 62.48-62.48 104.28 104.72" stroke-width="44"/>
</svg>
