<svg width="1e3" height="1e3" version="1.1" viewBox="0 0 1e3 1e3" xmlns="http://www.w3.org/2000/svg">
 <path d="m500 204.24c-145.25 0-262.9 58.823-262.9 131.45s117.65 131.45 262.9 131.45 262.9-58.823 262.9-131.45-117.65-131.45-262.9-131.45m-262.9 197.17v98.587c0 72.626 117.65 131.45 262.9 131.45s262.9-58.823 262.9-131.45v-98.587c0 72.626-117.65 131.45-262.9 131.45s-262.9-58.823-262.9-131.45m0 164.31v98.587c0 72.625 117.65 131.45 262.9 131.45s262.9-58.823 262.9-131.45v-98.587c0 72.626-117.65 131.45-262.9 131.45s-262.9-58.823-262.9-131.45z" stroke-width="32.862"/>
</svg>
