<svg width="1e3" height="1e3" version="1.1" viewBox="0 0 1e3 1e3" xmlns="http://www.w3.org/2000/svg">
 <path d="m533.03 582.06a82.057 82.057 0 0 0-82.057 82.057 82.057 82.057 0 0 0 82.057 82.057 82.057 82.057 0 0 0 82.057-82.057 82.057 82.057 0 0 0-82.057-82.057m-470.19-210.89 65.236 282.69 281.87-65.236-155.91-97.648c57.85-93.545 161.24-155.09 278.99-155.09 162.06 0 296.64 117.34 323.31 272.02l80.826-14.36c-33.233-192.83-201.45-339.72-404.13-339.72-146.88 0-276.12 77.544-348.74 193.66z" stroke-width="41.029"/>
</svg>
