<svg width="1e3" height="1e3" version="1.1" viewBox="0 0 1e3 1e3" xmlns="http://www.w3.org/2000/svg">
 <path d="m500 104a79.2 79.2 0 0 1 79.2 79.2c0 29.304-15.84 55.044-39.6 68.508v50.292h39.6a277.2 277.2 0 0 1 277.2 277.2h39.6a39.6 39.6 0 0 1 39.6 39.6v118.8a39.6 39.6 0 0 1-39.6 39.6h-39.6v39.6a79.2 79.2 0 0 1-79.2 79.2h-554.4a79.2 79.2 0 0 1-79.2-79.2v-39.6h-39.6a39.6 39.6 0 0 1-39.6-39.6v-118.8a39.6 39.6 0 0 1 39.6-39.6h39.6a277.2 277.2 0 0 1 277.2-277.2h39.6v-50.292c-23.76-13.464-39.6-39.204-39.6-68.508a79.2 79.2 0 0 1 79.2-79.2m-178.2 435.6a99 99 0 0 0-99 99 99 99 0 0 0 99 99 99 99 0 0 0 99-99 99 99 0 0 0-99-99m356.4 0a99 99 0 0 0-99 99 99 99 0 0 0 99 99 99 99 0 0 0 99-99 99 99 0 0 0-99-99z" stroke-width="39.6"/>
</svg>
