<svg width="1e3" height="1e3" version="1.1" viewBox="0 0 1e3 1e3" xmlns="http://www.w3.org/2000/svg">
 <path d="m217.14 896v-113.14h113.14v113.14h-113.14m226.29 0v-113.14h113.14v113.14h-113.14m226.29 0v-113.14h113.14v113.14h-113.14m-452.57-226.29v-113.14h113.14v113.14h-113.14m226.29 0v-113.14h113.14v113.14h-113.14m226.29 0v-113.14h113.14v113.14h-113.14m-452.57-226.29v-113.14h113.14v113.14h-113.14m226.29 0v-113.14h113.14v113.14h-113.14m226.29 0v-113.14h113.14v113.14h-113.14m-452.57-226.29v-113.14h113.14v113.14h-113.14m226.29 0v-113.14h113.14v113.14h-113.14m226.29 0v-113.14h113.14v113.14z" stroke-width="56.571"/>
</svg>
