<svg width="1e3" height="1e3" version="1.1" viewBox="0 0 1e3 1e3" xmlns="http://www.w3.org/2000/svg">
 <path d="m550.01 911.88-66.507-156.27c64.059-23.665 124.04-55.491 179.53-92.62l-113.02 248.89m-305.61-395.37-156.27-66.507 248.89-113.02c-37.13 55.491-68.955 115.47-92.62 179.53m651.61-412.51s-201.97-86.541-432.91 144.44c-89.356 89.356-142.81 187.69-177.49 273.78-11.425 30.601-3.6722 64.059 18.769 86.908l86.908 86.5c22.441 22.849 55.899 30.193 86.5 18.769 87.316-33.458 184.42-88.132 273.78-177.49 230.94-230.94 144.44-432.91 144.44-432.91m-288.47 288.47c-31.826-31.826-31.826-83.644 0-115.47 31.826-31.826 83.644-31.826 115.47 0 31.418 31.826 31.826 83.644 0 115.47-31.826 31.826-83.644 31.826-115.47 0m-230.94 288.47-57.531-57.531 57.531 57.531m-107.72 223.19 148.52-148.52c-13.873-3.6722-27.337-9.7925-39.578-18.361l-166.47 166.88h57.531m-173 0h57.531l194.63-194.22-57.939-57.531-194.22 194.22v57.531m0-115.47 166.88-166.47c-8.5684-12.241-14.689-25.297-18.361-39.578l-148.52 148.52z" stroke-width="40.802"/>
</svg>
