<svg width="1e3" height="1e3" version="1.1" viewBox="0 0 1e3 1e3" xmlns="http://www.w3.org/2000/svg">
 <path d="m661.25 104v284.3a269.78 269.78 0 0 1 76.725-11.141 269.78 269.78 0 0 1 16.451 0.50196v-273.66zm-326.12 232.94-279.53 279.53 279.53 279.53 66.156-66.156-167.25-166.79h234.64a269.78 269.78 0 0 1-0.48243-16.121 269.78 269.78 0 0 1 11.24-77.055h-245.4l167.25-166.79zm405.36 108.6c-113.28 0-203.9 90.626-203.9 203.91s90.624 203.9 203.9 203.9 203.9-90.622 203.9-203.9-90.624-203.91-203.9-203.91zm0 67.971c75.218 0 135.94 60.718 135.94 135.94 0 25.375-6.7951 48.936-19.029 67.967l-184.87-184.87c19.031-12.234 42.592-19.029 67.967-19.029zm-116.9 67.967 184.87 184.87c-19.031 12.234-42.594 19.031-67.969 19.031-75.218 0-135.94-60.718-135.94-135.94 0-25.375 6.797-48.938 19.031-67.969z" stroke-width="46.588"/>
</svg>
