<svg width="1e3" height="1e3" version="1.1" viewBox="0 0 1e3 1e3" xmlns="http://www.w3.org/2000/svg">
 <path d="m816.8 104h-633.6c-43.56 0-79.2 35.64-79.2 79.2v633.6c0 43.956 35.64 79.2 79.2 79.2h633.6c43.956 0 79.2-35.244 79.2-79.2v-633.6c0-43.56-35.244-79.2-79.2-79.2m-633.6 158.4 79.2-79.2h194.04l-273.24 273.24v-194.04m0 304.92 384.12-384.12h194.04l-578.16 578.16v-194.04m633.6 170.28-79.2 79.2h-194.04l273.24-273.24v194.04m0-304.92-384.12 384.12h-194.04l578.16-578.16z" stroke-width="39.6"/>
</svg>
