<svg width="1e3" height="1e3" version="1.1" viewBox="0 0 1e3 1e3" xmlns="http://www.w3.org/2000/svg">
 <path d="m514.23 272.83c-37.28-3.389-70.153 24.062-73.542 61.681l-8.4726 97.943h95.571v67.781h-101.67l-14.912 171.82c-6.7781 74.559-72.526 129.8-147.08 123.02-42.363-3.728-80.659-27.112-103.03-63.375l50.836-50.836c11.184 35.585 49.48 55.58 84.726 44.058 26.435-8.1337 45.074-31.518 47.447-58.969l14.234-165.72h-101.67v-67.781h107.77l9.1504-104.04c6.4392-74.559 71.848-129.8 146.75-123.7 42.702 3.728 81.337 27.451 103.7 64.053l-50.836 50.836c-8.4726-26.096-31.518-44.397-58.969-46.769m324.67 283.32-47.786-47.786-95.91 95.91-95.91-95.91-48.463 47.786 96.588 96.588-96.588 95.232 48.463 47.786 95.91-95.91 95.91 95.91 47.786-47.786-95.91-95.232z" stroke-width="33.89"/>
</svg>
