<svg width="1e3" height="1e3" version="1.1" viewBox="0 0 1e3 1e3" xmlns="http://www.w3.org/2000/svg">
 <path d="m85 638.33v-92.222h92.222v92.222h-92.222m0-184.44v-92.222h92.222v92.222h-92.222m184.44 184.44v-92.222h92.222v92.222h-92.222m0-184.44v-92.222h92.222v92.222h-92.222m184.44 184.44v-92.222h92.222v92.222h-92.222m0-184.44v-92.222h92.222v92.222h-92.222m184.44 184.44v-92.222h92.222v92.222h-92.222m0-184.44v-92.222h92.222v92.222h-92.222m184.44 184.44v-92.222h92.222v92.222h-92.222m0-184.44v-92.222h92.222v92.222z" stroke-width="46.111"/>
</svg>
