<svg width="1e3" height="1e3" version="1.1" viewBox="0 0 1e3 1e3" xmlns="http://www.w3.org/2000/svg">
 <path d="m500 579.2c-133.06 0-176.62 53.46-190.87 88.704 42.372 18.216 72.072 60.192 72.072 109.3 0 65.736-53.064 118.8-118.8 118.8s-118.8-53.064-118.8-118.8c0-51.876 32.868-95.831 79.2-112.07v-330.26c-46.332-16.236-79.2-60.192-79.2-112.07 0-65.736 53.064-118.8 118.8-118.8s118.8 53.064 118.8 118.8c0 51.876-32.868 95.831-79.2 112.07v209.48c34.848-25.74 85.536-44.352 158.4-44.352 105.73 0 140.98-53.064 152.46-88.308-42.768-17.82-73.26-60.192-73.26-109.69 0-65.736 53.064-118.8 118.8-118.8s118.8 53.064 118.8 118.8c0 53.064-34.848 98.999-82.764 113.26-10.296 56.628-48.708 163.94-194.43 163.94m-237.6 158.4c-21.78 0-39.6 17.82-39.6 39.6 0 21.78 17.82 39.6 39.6 39.6 21.78 0 39.6-17.82 39.6-39.6 0-21.78-17.82-39.6-39.6-39.6m0-554.4c-21.78 0-39.6 17.82-39.6 39.6 0 21.78 17.82 39.6 39.6 39.6 21.78 0 39.6-17.82 39.6-39.6 0-21.78-17.82-39.6-39.6-39.6m396 79.2c-21.78 0-39.6 17.82-39.6 39.6s17.82 39.6 39.6 39.6c21.78 0 39.6-17.82 39.6-39.6s-17.82-39.6-39.6-39.6m0 316.8v118.8h-118.8v79.2h118.8v118.8h79.2v-118.8h118.8v-79.2h-118.8v-118.8z" stroke-width="39.6"/>
</svg>
