<svg width="1e3" height="1e3" version="1.1" viewBox="0 0 1e3 1e3" xmlns="http://www.w3.org/2000/svg">
 <path d="m222.6 112.79a138.7 138.7 0 0 1 138.7 138.7c0 60.566-38.374 111.89-92.468 130.84v293.12c54.094 18.956 92.468 70.275 92.468 130.84a138.7 138.7 0 0 1-138.7 138.7 138.7 138.7 0 0 1-138.7-138.7c0-60.566 38.374-111.89 92.468-130.84v-293.12c-54.094-18.956-92.468-70.275-92.468-130.84a138.7 138.7 0 0 1 138.7-138.7m0 92.468a46.234 46.234 0 0 0-46.234 46.234 46.234 46.234 0 0 0 46.234 46.234 46.234 46.234 0 0 0 46.234-46.234 46.234 46.234 0 0 0-46.234-46.234m0 554.81a46.234 46.234 0 0 0-46.234 46.234 46.234 46.234 0 0 0 46.234 46.234 46.234 46.234 0 0 0 46.234-46.234 46.234 46.234 0 0 0-46.234-46.234m693.51 46.234a138.7 138.7 0 0 1-138.7 138.7 138.7 138.7 0 0 1-138.7-138.7c0-60.566 38.374-111.89 92.468-130.84v-377.73h-92.468v150.26l-196.49-196.49 196.49-196.49v150.26h92.468a92.468 92.468 0 0 1 92.468 92.468v377.73c54.094 18.956 92.468 70.275 92.468 130.84m-138.7-46.234a46.234 46.234 0 0 0-46.234 46.234 46.234 46.234 0 0 0 46.234 46.234 46.234 46.234 0 0 0 46.234-46.234 46.234 46.234 0 0 0-46.234-46.234z" stroke-width="46.234"/>
</svg>
