<svg width="1e3" height="1e3" version="1.1" viewBox="0 0 1e3 1e3" xmlns="http://www.w3.org/2000/svg">
 <path d="m203.5 203.5c-41.139 0-74.125 32.986-74.125 74.125v444.75a74.125 74.125 0 0 0 74.125 74.125h390.65a210.59 210.59 0 0 1-18.852-87.088 210.59 210.59 0 0 1 210.59-210.59 210.59 210.59 0 0 1 84.742 17.803v-164.87c0-41.139-33.356-74.125-74.125-74.125h-296.5l-74.131-74.131h-222.37z"/>
 <path d="m878.64 599.1-128.58 128.58-56.947-56.947-41.547 41.547 98.494 107.45 170.12-170.13z" stroke-width="35.816"/>
</svg>
