<svg version="1.1" viewBox="0 0 1000 1000" xmlns="http://www.w3.org/2000/svg">
 <g transform="matrix(1.0746 0 0 1.0746 -1315.5 782.38)">
  <path d="m1455.6-708.68-62.246 62.246 71.518 70.195c-33.11 22.073-60.04 53.417-79.906 88.293h-124.05v88.293h92.268c-2.6489 14.568-3.9727 29.137-3.9727 44.146v44.148h-88.295v88.293h88.295v44.146c0 15.01 1.3238 29.578 3.9727 44.146h-92.268v88.295h124.05c64.013 110.37 197.34 159.37 317.42 116.99v-28.695c0-112.13 71.077-211.9 176.59-249.43v-15.451h88.293v-88.293h-88.293v-44.148c0-15.01-1.3238-29.578-3.9726-44.146h92.266v-88.293h-124.05c-19.866-35.317-47.236-66.22-80.346-88.293l71.959-70.195-62.248-62.246-95.799 95.799c-20.308-4.8561-40.614-7.5059-62.688-7.5059s-41.94 2.6497-62.248 7.5059zm70.195 309.03h176.59v88.295h-176.59zm0 176.59h176.59v88.293h-176.59z" stroke-width="44.147"/>
  <path d="m1887.1-110.63v293.76l230.81-146.88z" stroke-width="20.983"/>
 </g>
</svg>
