<svg width="1e3" height="1e3" version="1.1" viewBox="0 0 1e3 1e3" xmlns="http://www.w3.org/2000/svg">
 <path d="m179.28 179.36-4e-3 2e-3c-44.564 0-80.295 35.731-80.295 80.295v481.77a80.295 80.295 0 0 0 80.295 80.295h423.17a228.12 228.12 0 0 1-20.421-94.337 228.12 228.12 0 0 1 228.12-228.12 228.12 228.12 0 0 1 91.797 19.285v-178.6c0-44.564-36.132-80.295-80.295-80.295h-321.18l-80.304-80.304zm731.34 428.53-139.29 139.29-61.688-61.688-45.005 45.005 106.69 116.4 184.28-184.29z" stroke-width="1.0832"/>
</svg>
