<svg width="1e3" height="1e3" version="1.1" viewBox="0 0 1e3 1e3" xmlns="http://www.w3.org/2000/svg">
 <path d="m500 55c189.73 0 343.86 199.44 343.86 445 0 245.96-154.13 445-343.86 445s-343.86-199.04-343.86-445c0-245.56 154.13-445 343.86-445m0 80.909c-145.23 0-262.95 163.03-262.95 364.09s117.72 364.09 262.95 364.09 262.95-163.03 262.95-364.09-117.72-364.09-262.95-364.09m-150.09 294.51 131.07-131.48 42.882 42.882-131.07 131.48-42.882-42.882m16.586 175.17 228.97-228.97 42.882 42.477-228.97 229.38z" stroke-width="40.454"/>
</svg>
