<svg width="1e3" height="1e3" version="1.1" viewBox="0 0 1e3 1e3" xmlns="http://www.w3.org/2000/svg">
 <path d="m233 55a133.5 133.5 0 0 1 133.5 133.5c0 56.96-36.045 105.91-86.33 125.04 4.005 20.47 14.685 45.39 41.83 80.99 44.5 57.405 133.5 142.4 178 202.03 44.5-59.63 133.5-144.62 178-202.03 27.145-35.6 37.825-60.52 41.83-80.99-50.285-19.135-86.33-68.085-86.33-125.04a133.5 133.5 0 0 1 133.5-133.5 133.5 133.5 0 0 1 133.5 133.5c0 58.74-38.27 109.02-91.225 126.82-3.56 23.14-13.795 51.175-42.275 88.11-44.5 59.63-133.5 144.62-178 202.48-27.145 35.155-37.825 60.075-41.83 80.545 50.285 19.135 86.33 68.085 86.33 125.04a133.5 133.5 0 0 1-133.5 133.5 133.5 133.5 0 0 1-133.5-133.5c0-56.96 36.045-105.91 86.33-125.04-4.005-20.47-14.685-45.39-41.83-80.545-44.5-57.85-133.5-142.84-178-202.48-28.48-36.935-38.715-64.97-42.275-88.11-52.955-17.8-91.225-68.085-91.225-126.82a133.5 133.5 0 0 1 133.5-133.5m0 89a44.5 44.5 0 0 0-44.5 44.5 44.5 44.5 0 0 0 44.5 44.5 44.5 44.5 0 0 0 44.5-44.5 44.5 44.5 0 0 0-44.5-44.5m534 0a44.5 44.5 0 0 0-44.5 44.5 44.5 44.5 0 0 0 44.5 44.5 44.5 44.5 0 0 0 44.5-44.5 44.5 44.5 0 0 0-44.5-44.5m-267 623a44.5 44.5 0 0 0-44.5 44.5 44.5 44.5 0 0 0 44.5 44.5 44.5 44.5 0 0 0 44.5-44.5 44.5 44.5 0 0 0-44.5-44.5z" stroke-width="44.5"/>
</svg>
