<svg width="1e3" height="1e3" version="1.1" viewBox="0 0 1e3 1e3" xmlns="http://www.w3.org/2000/svg">
 <path d="m258 104a132 132 0 0 1 132 132c0 56.76-35.64 105.16-86.24 123.64 23.76 220 221.76 262.24 314.6 270.6 18.48-50.6 66.88-86.24 123.64-86.24a132 132 0 0 1 132 132 132 132 0 0 1-132 132c-57.64 0-106.92-36.96-124.96-88-187-8.8-251.68-79.64-315.04-158.84v78.32c51.48 18.04 88 66.88 88 124.52a132 132 0 0 1-132 132 132 132 0 0 1-132-132c0-57.64 36.52-106.48 88-124.52v-278.96c-51.48-18.04-88-66.88-88-124.52a132 132 0 0 1 132-132m0 88a44 44 0 0 0-44 44 44 44 0 0 0 44 44 44 44 0 0 0 44-44 44 44 0 0 0-44-44m0 528a44 44 0 0 0-44 44 44 44 0 0 0 44 44 44 44 0 0 0 44-44 44 44 0 0 0-44-44m484-88a44 44 0 0 0-44 44 44 44 0 0 0 44 44 44 44 0 0 0 44-44 44 44 0 0 0-44-44z" stroke-width="44"/>
</svg>
