<svg width="1e3" height="1e3" version="1.1" viewBox="0 0 1e3 1e3" xmlns="http://www.w3.org/2000/svg">
 <path d="m735.71 896-108.04-117.86 45.571-45.571 62.464 62.464 141.04-141.04 45.571 55.393-186.61 186.61m-304.46-281.29h78.571v78.571h-78.571v-78.571m0-314.29h78.571v235.71h-78.571v-235.71m39.286-196.43c216.07 0 392.86 176.79 392.86 392.86l-3.1429 51.464c-23.964-7.8571-49.107-12.179-77.786-12.179l2.3571-39.286c0-173.64-140.64-314.29-314.29-314.29-173.64 0-314.29 140.64-314.29 314.29 0 173.64 140.64 314.29 314.29 314.29 27.893 0 54.607-3.5357 80.536-10.214 3.1429 26.714 11 51.857 22.393 75.036-33 9.0357-67.571 13.75-102.93 13.75-217.25 0-392.86-176.79-392.86-392.86s175.61-392.86 392.86-392.86z" stroke-width="39.286"/>
</svg>
