<svg width="1e3" height="1e3" version="1.1" viewBox="0 0 1e3 1e3" xmlns="http://www.w3.org/2000/svg">
 <path d="m467.52 104c-211.94 0-383.26 172.47-383.26 383.26s171.32 383.26 383.26 383.26c34.488 0 68.212-4.5977 100.4-13.41a230.4 230.4 0 0 1-22.228-73.108c-25.171 6.4496-51.103 9.8662-78.173 9.8662-169.4 0-306.61-137.21-306.61-306.61 0-169.4 137.21-306.61 306.61-306.61 169.4 0 306.61 137.21 306.61 306.61l-2.2084 36.805a230.4 230.4 0 0 1 2.2732-0.0114 230.4 230.4 0 0 1 73.602 12.075l2.9839-48.868c0-210.79-172.47-383.26-383.26-383.26zm-38.325 191.63v229.95h76.652v-229.95zm0 306.61v76.65h76.652v-76.65zm309.61 10.672v106.16h-106.16v70.774h106.16v106.16h70.774v-106.16h106.16v-70.774h-106.16v-106.16z" stroke-width="38.326"/>
</svg>
