<svg width="1e3" height="1e3" version="1.1" viewBox="0 0 1e3 1e3" xmlns="http://www.w3.org/2000/svg">
 <path d="m539.6 381.2h217.8l-217.8-217.8v217.8m-277.2-277.2h316.8l237.6 237.6v475.2a79.2 79.2 0 0 1-79.2 79.2h-475.2a79.2 79.2 0 0 1-79.2-79.2v-633.6a79.2 79.2 0 0 1 79.2-79.2m162.36 372.24c-0.792 1.584-11.484 69.696-83.16 185.72 0 0-138.6 72.072-105.73 125.93 26.532 42.768 91.872-1.584 148.1-106.13 0 0 72.072-25.344 167.9-32.472 0 0 152.86 68.508 173.84-4.356 20.592-73.656-121.18-57.024-146.52-49.5 0 0-79.2-53.46-99-127.12 0 0 45.144-156.42-24.156-154.44s-43.164 123.95-31.284 162.36m32.076 41.184c1.188 0.396 18.612 47.916 74.844 97.416 0 0-92.268 18.216-134.24 35.64 0 0 39.6-68.508 59.4-133.06m155.63 107.71c22.968-6.336 92.268 5.94 89.496 19.008-2.376 13.068-89.496-19.008-89.496-19.008m-279.97 72.864c-20.988 49.104-57.024 79.2-66.132 79.2s27.72-63.36 66.132-79.2m124.34-274.43c0-2.772-14.256-87.12 0-85.14 21.384 3.168 0 82.368 0 85.14z" stroke-width="39.6"/>
</svg>
