<svg width="1e3" height="1e3" version="1.1" viewBox="0 0 1e3 1e3" xmlns="http://www.w3.org/2000/svg">
 <path d="m262.4 104c-43.956 0-79.2 35.64-79.2 79.2v633.6a79.2 79.2 0 0 0 79.2 79.2h475.2a79.2 79.2 0 0 0 79.2-79.2v-475.2l-237.6-237.6h-316.8m277.2 59.4 217.8 217.8h-217.8v-217.8m-39.6 297a118.8 118.8 0 0 1 118.8 118.8v39.6h39.6v158.4h-316.8v-158.4h39.6v-39.6c0-64.944 53.064-118.8 118.8-118.8m0 79.2a39.6 39.6 0 0 0-39.6 39.6v39.6h79.2v-39.6c0-20.988-17.82-39.6-39.6-39.6z" stroke-width="39.6"/>
</svg>
