<svg width="1e3" height="1e3" version="1.1" viewBox="0 0 1e3 1e3" xmlns="http://www.w3.org/2000/svg">
 <path d="m500 356a144 144 0 0 1 144 144 144 144 0 0 1-144 144 144 144 0 0 1-144-144 144 144 0 0 1 144-144m-322.2 180h-73.8v-72h73.8c16.2-150.12 136.08-270 286.2-286.2v-73.8h72v73.8c150.12 16.2 270 136.08 286.2 286.2h73.8v72h-73.8c-16.2 150.12-136.08 270-286.2 286.2v73.8h-72v-73.8c-150.12-16.2-270-136.08-286.2-286.2m322.2-288a252 252 0 0 0-252 252 252 252 0 0 0 252 252 252 252 0 0 0 252-252 252 252 0 0 0-252-252z" stroke-width="36"/>
</svg>
