<svg width="1e3" height="1e3" version="1.1" viewBox="0 0 1e3 1e3" xmlns="http://www.w3.org/2000/svg">
 <path d="m464 104v73.801c-150.12 16.2-270 136.08-286.2 286.2h-73.801v72h73.801c16.2 150.12 136.08 270 286.2 286.2v73.801h72v-73.801c150.12-16.2 270-136.08 286.2-286.2h73.801v-72h-73.801c-16.2-150.12-136.08-270-286.2-286.2v-73.801h-72zm36 144a252 252 0 0 1 252 252 252 252 0 0 1-252 252 252 252 0 0 1-252-252 252 252 0 0 1 252-252z" stroke-linecap="square" stroke-width="1.143" style="paint-order:fill markers stroke"/>
</svg>
