<svg width="1e3" height="1e3" version="1.1" viewBox="0 0 1e3 1e3" xmlns="http://www.w3.org/2000/svg">
 <path d="m262.4 104c-43.956 0-79.201 35.243-79.201 79.199v633.6c0 43.956 35.245 79.199 79.201 79.199h475.2c43.956 0 79.201-35.243 79.201-79.199v-475.2l-237.6-237.6h-316.8zm277.2 59.4 217.8 217.8h-217.8v-217.8zm-204.35 326.34c0.31744 0 1.2702 0.15912 2.8574 0.47656 6.0313 1.2698 14.998 3.2549 26.902 5.9531 6.3488 0.79358 15.634 2.2218 27.855 4.2852 2.2221 0.63488 3.334 2.3794 3.334 5.2363 2e-5 0.95231-0.15912 2.6192-0.47656 5-1.7459 13.967-2.6191 48.173-2.6191 102.61 0 18.253 0.07956 45.711 0.23828 82.375 0.31744 36.664 0.47657 64.122 0.47657 82.375 0 3.0157-1.3486 5.7925-4.0469 8.332-2.6982 2.5395-5.6362 3.8106-8.8106 3.8106-7.6185 0-19.046 0.07956-34.283 0.23828-15.237 0.15871-26.665 0.23633-34.283 0.23633-5.8726 0-8.729-2.5382-8.5703-7.6172l0.23829-2.6191c2.2221-60.631 3.332-97.374 3.332-110.23v-70.709c0-4.4442-1.0304-6.666-3.0938-6.666-3.1744 0-8.016 0.95083-14.523 2.8555-6.3488 1.9046-11.19 2.8574-14.523 2.8574-4.9203 0-7.3789-2.936-7.3789-8.8086 0-5.3965-0.07956-13.492-0.23829-24.285-0.15872-10.793-0.23828-18.966-0.23828-24.521 0-3.1744 1.9832-5.5554 5.9512-7.1426 23.332-9.6819 41.664-22.697 54.996-39.045 2.6982-3.3331 4.9997-5 6.9043-5zm255.45 6.4297c40.632-1e-5 74.599 14.998 101.9 44.996 26.665 29.204 39.996 64.281 39.996 105.23 0 40.95-13.254 76.106-39.76 105.47-27.458 30.474-61.503 45.711-102.13 45.711-40.632 1e-5 -74.599-15.237-101.9-45.711-26.665-29.363-39.996-64.519-39.996-105.47 0-41.108 13.331-76.185 39.996-105.23 27.3-29.998 61.266-44.996 101.9-44.996zm0 88.326c-16.348 0-29.522 6.3493-39.521 19.047-9.3644 11.745-14.047 26.029-14.047 42.854 0 16.507 4.6824 30.87 14.047 43.092 10.158 13.174 23.332 19.762 39.521 19.762 15.554 0 28.569-6.7452 39.045-20.236 9.6819-12.38 14.523-26.587 14.523-42.617 0-16.348-4.762-30.553-14.285-42.615-10.158-12.856-23.253-19.285-39.283-19.285z" stroke-width="39.6"/>
</svg>
