<svg width="1e3" height="1e3" version="1.1" viewBox="0 0 1e3 1e3" xmlns="http://www.w3.org/2000/svg">
 <path d="m579.2 104h-316.8c-43.956 0-79.2 35.244-79.2 79.2v633.6c0 43.956 35.244 79.2 79.2 79.2h475.2c43.956 0 79.2-35.244 79.2-79.2v-475.2l-237.6-237.6m-118.8 712.8h-39.6c-63.756 0-158.4-41.976-158.4-158.4 0-116.03 94.644-158.4 158.4-158.4h39.6v79.2h-39.6c-18.216 0-79.2 6.732-79.2 79.2 0 75.24 66.132 79.2 79.2 79.2h39.6v79.2m158.4-198v79.2h-237.6v-79.2h237.6m-39.6 198h-39.6v-79.2h39.6c18.216 0 79.2-6.732 79.2-79.2 0-75.24-66.132-79.2-79.2-79.2h-39.6v-79.2h39.6c63.756 0 158.4 42.372 158.4 158.4 0 116.42-94.644 158.4-158.4 158.4m-39.6-435.6v-217.8l217.8 217.8z" stroke-width="39.6"/>
</svg>
