<svg version="1.1" viewBox="0 0 1000 1000" xmlns="http://www.w3.org/2000/svg">
 <path d="m500 742.73a242.73 242.73 0 0 1-242.73-242.73c0-40.455 10.114-79.695 28.318-113.27l-59.064-59.064c-31.555 49.759-50.164 108.82-50.164 172.34a323.64 323.64 0 0 0 323.64 323.64v121.36l161.82-161.82-161.82-161.82m0-445v-121.36l-161.82 161.82 161.82 161.82v-121.36a242.73 242.73 0 0 1 242.73 242.73c0 40.455-10.114 79.695-28.318 113.27l59.064 59.064c31.555-49.759 50.164-108.82 50.164-172.34a323.64 323.64 0 0 0-323.64-323.64z" style="stroke-width:40.454"/>
</svg>
