<svg version="1.1" viewBox="0 0 1000 1000" xmlns="http://www.w3.org/2000/svg">
 <path d="m845.72 336.92c6.708-16.512 28.38-82.044-6.708-170.8 0 0-54.18-17.028-177.5 67.08-51.6-14.448-106.81-16.512-161.51-16.512s-109.91 2.064-161.51 16.512c-123.32-84.624-177.5-67.08-177.5-67.08-35.088 88.752-13.416 154.28-6.708 170.8-41.796 44.892-67.08 102.68-67.08 172.86 0 265.74 171.83 325.6 411.77 325.6 239.94 0 413.83-59.856 413.83-325.6 0-70.176-25.284-127.97-67.08-172.86zm-345.72 447.89c-170.28 0-308.57-7.74-308.57-172.86 0-39.216 19.608-76.368 52.632-106.81 55.212-50.568 149.64-23.736 255.94-23.736 106.81 0 200.21-26.832 255.94 23.736 33.54 30.444 52.632 67.08 52.632 106.81 0 164.6-138.29 172.86-308.57 172.86zm-129.52-258.52c-34.056 0-61.92 41.28-61.92 91.848 0 50.568 27.864 92.364 61.92 92.364 34.056 0 61.92-41.28 61.92-92.364s-27.864-91.848-61.92-91.848zm259.03 0c-34.056 0-61.92 40.764-61.92 91.848s27.864 92.364 61.92 92.364c34.056 0 61.92-41.28 61.92-92.364s-27.348-91.848-61.92-91.848z" fill="currentColor" fill-rule="evenodd" style="stroke-width:51.6"/>
</svg>
