<?xml version="1.0" encoding="UTF-8"?>
<svg version="1.1" viewBox="0 0 1e3 1e3" xmlns="http://www.w3.org/2000/svg">
 <path d="m742.72 500.01a242.73 242.73 0 0 0-242.73-242.73c-40.455 0-79.695 10.114-113.27 28.318l-59.064-59.064c49.759-31.555 108.82-50.164 172.34-50.164a323.64 323.64 0 0 1 323.64 323.64h121.36l-161.82 161.82-161.82-161.82m-445 0h-121.36l161.82-161.82 161.82 161.82h-121.36a242.73 242.73 0 0 0 242.73 242.73c40.455 0 79.695-10.114 113.27-28.318l59.064 59.064c-49.759 31.555-108.82 50.164-172.34 50.164a323.64 323.64 0 0 1-323.64-323.64z" stroke-width="40.454"/>
</svg>
