<?xml version="1.0" encoding="UTF-8"?>
<svg version="1.1" viewBox="0 0 1000 1000" xml:space="preserve" xmlns="http://www.w3.org/2000/svg"><path d="m833.16 886.21-103-103h-570.08v-37.729l75.458-75.458v-226.37c0-43.011 10.941-85.645 31.315-123.75l-178.08-178.08 48.293-47.916 744.01 744.39-47.916 47.916m-69.421-261.46v-181.1c0-116.96-76.59-219.96-188.64-253.16v-10.941a75.458 75.458 0 0 0-75.458-75.458 75.458 75.458 0 0 0-75.458 75.458v10.941c-23.015 6.7912-45.275 16.978-65.648 30.183l405.21 404.08m-264.1 271.65a75.458 75.458 0 0 0 75.458-75.458h-150.92a75.458 75.458 0 0 0 75.458 75.458z" stroke-width="37.729"/></svg>
