<?xml version="1.0" encoding="UTF-8"?>
<svg version="1.1" viewBox="0 0 1000 1000" xmlns="http://www.w3.org/2000/svg">
 <path d="m849.52 334.54c29.746 29.746 29.746 78.084 0 104.11l-104.11 104.11-290.03-290.03 104.11-104.11c29.746-29.746 78.084-29.746 104.11 0l66.93 66.93 111.55-111.55 52.056 52.056-111.55 111.55 66.93 66.93m-215.66 215.66-52.056-52.056-104.11 104.11-78.084-78.085 104.11-104.11-52.056-52.056-104.11 104.11-55.775-52.056-104.11 104.11c-29.746 29.746-29.746 78.085 0 104.11l66.93 66.93-148.73 148.73 52.056 52.056 148.73-148.73 66.93 66.93c29.746 29.746 78.085 29.746 104.11 0l104.11-104.11-52.056-52.056z" stroke-width="37.183"/>
</svg>
