<svg version="1.1" viewBox="0 0 1000 1000" xmlns="http://www.w3.org/2000/svg">
 <path d="m188.92 272.08c-81.4 66.88-128.92 166.76-128.92 271.92a352 352 0 0 0 352 352c28.16 0 55.881-3.5191 82.721-10.119-77.44-17.16-148.72-55.881-207.24-109.12-85.8-45.76-139.48-135.52-139.48-232.76 0-13.2 1.3201-25.96 3.0801-39.16-1.76-16.28-3.0801-32.56-3.0801-48.84 0-63.36 14.08-126.28 40.92-183.92z"/>
 <path d="m764 491.2h-352v-70.4h352m-176-316.8a352 352 0 0 0-352 352 352 352 0 0 0 352 352 352 352 0 0 0 352-352 352 352 0 0 0-352-352z" style="stroke-width:35.2"/>
</svg>
